<svg width="1200" height="92" viewBox="0 0 1200 92" fill="none" xmlns="http://www.w3.org/2000/svg">
<path d="M975.408 83.16C973.989 83.16 972.907 82.776 972.16 82.008C971.424 81.2293 971.029 80.168 970.976 78.824C970.965 78.536 970.96 78.0667 970.96 77.416C970.96 76.7547 970.965 76.2747 970.976 75.976C971.029 74.632 971.424 73.576 972.16 72.808C972.907 72.0293 973.989 71.64 975.408 71.64C976.357 71.64 977.163 71.8107 977.824 72.152C978.485 72.4827 978.981 72.92 979.312 73.464C979.653 74.008 979.84 74.5893 979.872 75.208C979.872 75.304 979.835 75.384 979.76 75.448C979.696 75.5013 979.616 75.528 979.52 75.528H978.72C978.613 75.528 978.528 75.5013 978.464 75.448C978.4 75.3947 978.352 75.304 978.32 75.176C978.139 74.3547 977.808 73.7787 977.328 73.448C976.859 73.1173 976.219 72.952 975.408 72.952C973.552 72.952 972.587 73.9867 972.512 76.056C972.501 76.344 972.496 76.7867 972.496 77.384C972.496 77.9813 972.501 78.4347 972.512 78.744C972.587 80.8027 973.552 81.832 975.408 81.832C976.208 81.832 976.848 81.6667 977.328 81.336C977.808 81.0053 978.139 80.4347 978.32 79.624C978.352 79.496 978.4 79.4053 978.464 79.352C978.528 79.2987 978.613 79.272 978.72 79.272H979.52C979.616 79.272 979.696 79.304 979.76 79.368C979.835 79.4213 979.872 79.496 979.872 79.592C979.84 80.2107 979.653 80.792 979.312 81.336C978.981 81.88 978.485 82.3227 977.824 82.664C977.163 82.9947 976.357 83.16 975.408 83.16ZM985.377 83.16C984.203 83.16 983.297 82.8293 982.657 82.168C982.027 81.5067 981.691 80.6267 981.649 79.528L981.633 78.84L981.649 78.152C981.691 77.0533 982.033 76.1733 982.673 75.512C983.323 74.8507 984.225 74.52 985.377 74.52C986.529 74.52 987.425 74.8507 988.065 75.512C988.715 76.1733 989.062 77.0533 989.105 78.152C989.126 78.3867 989.137 78.616 989.137 78.84C989.137 79.064 989.126 79.2933 989.105 79.528C989.062 80.6267 988.721 81.5067 988.081 82.168C987.451 82.8293 986.55 83.16 985.377 83.16ZM985.377 81.96C986.059 81.96 986.598 81.7467 986.993 81.32C987.398 80.8827 987.617 80.2587 987.649 79.448C987.659 79.3413 987.665 79.1387 987.665 78.84C987.665 78.5413 987.659 78.3387 987.649 78.232C987.617 77.4213 987.398 76.8027 986.993 76.376C986.598 75.9387 986.059 75.72 985.377 75.72C984.694 75.72 984.15 75.9387 983.745 76.376C983.35 76.8027 983.137 77.4213 983.105 78.232L983.089 78.84L983.105 79.448C983.137 80.2587 983.35 80.8827 983.745 81.32C984.15 81.7467 984.694 81.96 985.377 81.96ZM994.421 83.16C993.408 83.16 992.624 82.8347 992.069 82.184C991.514 81.5227 991.237 80.648 991.237 79.56V75.048C991.237 74.9413 991.269 74.856 991.333 74.792C991.408 74.7173 991.498 74.68 991.605 74.68H992.341C992.448 74.68 992.533 74.7173 992.597 74.792C992.672 74.856 992.709 74.9413 992.709 75.048V79.48C992.709 81.1013 993.413 81.912 994.821 81.912C995.504 81.912 996.042 81.6987 996.437 81.272C996.842 80.8347 997.045 80.2373 997.045 79.48V75.048C997.045 74.9413 997.077 74.856 997.141 74.792C997.216 74.7173 997.306 74.68 997.413 74.68H998.149C998.256 74.68 998.341 74.7173 998.405 74.792C998.48 74.856 998.517 74.9413 998.517 75.048V82.632C998.517 82.7387 998.48 82.8293 998.405 82.904C998.341 82.968 998.256 83 998.149 83H997.461C997.354 83 997.264 82.968 997.189 82.904C997.125 82.8293 997.093 82.7387 997.093 82.632V81.912C996.784 82.328 996.421 82.6427 996.005 82.856C995.589 83.0587 995.061 83.16 994.421 83.16ZM1001.44 83C1001.33 83 1001.24 82.968 1001.17 82.904C1001.1 82.8293 1001.07 82.7387 1001.07 82.632V75.048C1001.07 74.9413 1001.1 74.856 1001.17 74.792C1001.24 74.7173 1001.33 74.68 1001.44 74.68H1002.13C1002.24 74.68 1002.33 74.712 1002.4 74.776C1002.46 74.84 1002.49 74.9307 1002.49 75.048V75.752C1002.81 75.3573 1003.18 75.0533 1003.6 74.84C1004.03 74.6267 1004.55 74.52 1005.18 74.52C1006.21 74.52 1007 74.8507 1007.57 75.512C1008.13 76.1627 1008.41 77.0267 1008.41 78.104V82.632C1008.41 82.7387 1008.38 82.8293 1008.3 82.904C1008.24 82.968 1008.15 83 1008.05 83H1007.31C1007.2 83 1007.11 82.968 1007.04 82.904C1006.97 82.8293 1006.94 82.7387 1006.94 82.632V78.2C1006.94 77.432 1006.76 76.8347 1006.38 76.408C1006.01 75.9813 1005.48 75.768 1004.78 75.768C1004.1 75.768 1003.56 75.9867 1003.15 76.424C1002.75 76.8507 1002.54 77.4427 1002.54 78.2V82.632C1002.54 82.7387 1002.51 82.8293 1002.43 82.904C1002.37 82.968 1002.28 83 1002.17 83H1001.44ZM1013.98 83C1012.32 83 1011.5 82.0667 1011.5 80.2V75.912H1010.23C1010.13 75.912 1010.04 75.88 1009.98 75.816C1009.91 75.752 1009.88 75.6667 1009.88 75.56V75.048C1009.88 74.9413 1009.91 74.856 1009.98 74.792C1010.04 74.7173 1010.13 74.68 1010.23 74.68H1011.5V72.008C1011.5 71.9013 1011.53 71.816 1011.59 71.752C1011.66 71.6773 1011.74 71.64 1011.85 71.64H1012.55C1012.66 71.64 1012.75 71.6773 1012.81 71.752C1012.88 71.816 1012.92 71.9013 1012.92 72.008V74.68H1014.91C1015.01 74.68 1015.1 74.7173 1015.16 74.792C1015.24 74.856 1015.27 74.9413 1015.27 75.048V75.56C1015.27 75.6667 1015.24 75.752 1015.16 75.816C1015.1 75.88 1015.01 75.912 1014.91 75.912H1012.92V80.088C1012.92 80.632 1013.01 81.0427 1013.18 81.32C1013.36 81.5973 1013.66 81.736 1014.09 81.736H1015.07C1015.17 81.736 1015.26 81.7733 1015.32 81.848C1015.39 81.912 1015.42 81.9973 1015.42 82.104V82.632C1015.42 82.7387 1015.39 82.8293 1015.32 82.904C1015.26 82.968 1015.17 83 1015.07 83H1013.98ZM1017.51 83C1017.4 83 1017.31 82.968 1017.24 82.904C1017.17 82.8293 1017.14 82.7387 1017.14 82.632V75.064C1017.14 74.9573 1017.17 74.8667 1017.24 74.792C1017.31 74.7173 1017.4 74.68 1017.51 74.68H1018.18C1018.3 74.68 1018.39 74.7173 1018.45 74.792C1018.53 74.856 1018.56 74.9467 1018.56 75.064V75.768C1019 75.0427 1019.74 74.68 1020.79 74.68H1021.41C1021.53 74.68 1021.62 74.712 1021.68 74.776C1021.75 74.84 1021.78 74.9307 1021.78 75.048V75.64C1021.78 75.7467 1021.75 75.8373 1021.68 75.912C1021.62 75.976 1021.53 76.008 1021.41 76.008H1020.5C1019.91 76.008 1019.45 76.1787 1019.11 76.52C1018.78 76.8613 1018.61 77.3253 1018.61 77.912V82.632C1018.61 82.7387 1018.58 82.8293 1018.5 82.904C1018.43 82.968 1018.34 83 1018.23 83H1017.51ZM1023.56 73.112C1023.45 73.112 1023.36 73.08 1023.28 73.016C1023.22 72.9413 1023.19 72.8507 1023.19 72.744V71.912C1023.19 71.8053 1023.22 71.7147 1023.28 71.64C1023.36 71.5653 1023.45 71.528 1023.56 71.528H1024.5C1024.61 71.528 1024.7 71.5653 1024.77 71.64C1024.85 71.7147 1024.88 71.8053 1024.88 71.912V72.744C1024.88 72.8507 1024.85 72.9413 1024.77 73.016C1024.7 73.08 1024.61 73.112 1024.5 73.112H1023.56ZM1023.68 83C1023.58 83 1023.49 82.968 1023.41 82.904C1023.35 82.8293 1023.32 82.7387 1023.32 82.632V75.048C1023.32 74.9413 1023.35 74.856 1023.41 74.792C1023.49 74.7173 1023.58 74.68 1023.68 74.68H1024.39C1024.49 74.68 1024.58 74.7173 1024.64 74.792C1024.72 74.856 1024.76 74.9413 1024.76 75.048V82.632C1024.76 82.7387 1024.72 82.8293 1024.64 82.904C1024.58 82.968 1024.49 83 1024.39 83H1023.68ZM1030.62 83.16C1029.53 83.16 1028.66 82.824 1028.01 82.152C1027.36 81.4693 1027 80.5413 1026.94 79.368L1026.92 78.824L1026.94 78.296C1027 77.144 1027.36 76.2267 1028.01 75.544C1028.66 74.8613 1029.53 74.52 1030.62 74.52C1031.79 74.52 1032.7 74.8933 1033.34 75.64C1033.99 76.3867 1034.31 77.4 1034.31 78.68V78.968C1034.31 79.0747 1034.27 79.1653 1034.2 79.24C1034.14 79.304 1034.05 79.336 1033.94 79.336H1028.39V79.48C1028.42 80.1733 1028.64 80.7653 1029.03 81.256C1029.43 81.7467 1029.95 81.992 1030.6 81.992C1031.1 81.992 1031.51 81.896 1031.82 81.704C1032.14 81.5013 1032.38 81.2933 1032.54 81.08C1032.63 80.952 1032.71 80.8773 1032.76 80.856C1032.81 80.824 1032.9 80.808 1033.03 80.808H1033.74C1033.83 80.808 1033.91 80.8347 1033.98 80.888C1034.05 80.9413 1034.09 81.0107 1034.09 81.096C1034.09 81.3307 1033.94 81.6133 1033.66 81.944C1033.37 82.2747 1032.96 82.5627 1032.42 82.808C1031.9 83.0427 1031.3 83.16 1030.62 83.16ZM1032.86 78.248V78.2C1032.86 77.4533 1032.65 76.8453 1032.25 76.376C1031.84 75.9067 1031.3 75.672 1030.62 75.672C1029.92 75.672 1029.38 75.9067 1028.98 76.376C1028.59 76.8453 1028.39 77.4533 1028.39 78.2V78.248H1032.86ZM1039.27 83.16C1038.53 83.16 1037.91 83.0427 1037.39 82.808C1036.89 82.5627 1036.52 82.2853 1036.27 81.976C1036.03 81.6667 1035.91 81.4107 1035.91 81.208C1035.91 81.1013 1035.94 81.0213 1036.02 80.968C1036.09 80.904 1036.17 80.872 1036.26 80.872H1036.93C1036.99 80.872 1037.04 80.8827 1037.07 80.904C1037.12 80.9253 1037.17 80.9733 1037.23 81.048C1037.48 81.3467 1037.75 81.5813 1038.05 81.752C1038.36 81.9227 1038.77 82.008 1039.28 82.008C1039.86 82.008 1040.32 81.9013 1040.66 81.688C1041.01 81.4747 1041.19 81.1653 1041.19 80.76C1041.19 80.4933 1041.11 80.28 1040.96 80.12C1040.81 79.96 1040.56 79.816 1040.21 79.688C1039.87 79.56 1039.36 79.4213 1038.67 79.272C1037.75 79.0693 1037.09 78.776 1036.71 78.392C1036.32 78.008 1036.13 77.512 1036.13 76.904C1036.13 76.5093 1036.25 76.1307 1036.48 75.768C1036.72 75.3947 1037.06 75.096 1037.52 74.872C1037.99 74.6373 1038.55 74.52 1039.19 74.52C1039.86 74.52 1040.43 74.632 1040.9 74.856C1041.38 75.08 1041.73 75.3413 1041.97 75.64C1042.21 75.9387 1042.34 76.1893 1042.34 76.392C1042.34 76.488 1042.3 76.568 1042.23 76.632C1042.16 76.696 1042.08 76.728 1041.99 76.728H1041.38C1041.23 76.728 1041.12 76.6693 1041.06 76.552C1040.88 76.3493 1040.72 76.1947 1040.59 76.088C1040.48 75.9707 1040.3 75.8747 1040.07 75.8C1039.83 75.7147 1039.54 75.672 1039.19 75.672C1038.66 75.672 1038.26 75.784 1037.99 76.008C1037.71 76.2213 1037.57 76.5093 1037.57 76.872C1037.57 77.096 1037.63 77.288 1037.75 77.448C1037.86 77.5973 1038.09 77.7413 1038.42 77.88C1038.75 78.008 1039.24 78.1413 1039.89 78.28C1040.9 78.4933 1041.62 78.7973 1042.03 79.192C1042.46 79.5867 1042.67 80.0933 1042.67 80.712C1042.67 81.1707 1042.54 81.5867 1042.27 81.96C1042.02 82.3333 1041.63 82.6267 1041.11 82.84C1040.59 83.0533 1039.98 83.16 1039.27 83.16ZM1052.58 83.16C1051.7 83.16 1050.94 83.0213 1050.29 82.744C1049.65 82.4667 1049.16 82.104 1048.82 81.656C1048.49 81.1973 1048.31 80.7067 1048.29 80.184C1048.29 80.0987 1048.32 80.024 1048.38 79.96C1048.45 79.896 1048.53 79.864 1048.62 79.864H1049.41C1049.6 79.864 1049.73 79.9707 1049.81 80.184C1049.9 80.632 1050.18 81.0213 1050.62 81.352C1051.08 81.672 1051.73 81.832 1052.58 81.832C1053.48 81.832 1054.16 81.672 1054.61 81.352C1055.06 81.032 1055.28 80.5893 1055.28 80.024C1055.28 79.6613 1055.17 79.3627 1054.94 79.128C1054.73 78.8933 1054.41 78.6907 1053.97 78.52C1053.54 78.3387 1052.9 78.12 1052.03 77.864C1051.21 77.6293 1050.55 77.3787 1050.06 77.112C1049.58 76.8453 1049.22 76.52 1048.98 76.136C1048.73 75.7413 1048.61 75.2453 1048.61 74.648C1048.61 74.072 1048.76 73.56 1049.07 73.112C1049.38 72.6533 1049.83 72.296 1050.42 72.04C1051 71.7733 1051.7 71.64 1052.5 71.64C1053.33 71.64 1054.04 71.7893 1054.62 72.088C1055.22 72.376 1055.67 72.744 1055.98 73.192C1056.29 73.6293 1056.46 74.072 1056.48 74.52C1056.48 74.616 1056.45 74.696 1056.38 74.76C1056.32 74.824 1056.24 74.856 1056.14 74.856H1055.34C1055.26 74.856 1055.18 74.8293 1055.1 74.776C1055.03 74.7227 1054.98 74.6427 1054.94 74.536C1054.88 74.0773 1054.62 73.6987 1054.18 73.4C1053.73 73.1013 1053.17 72.952 1052.5 72.952C1051.77 72.952 1051.19 73.096 1050.77 73.384C1050.34 73.6613 1050.13 74.0773 1050.13 74.632C1050.13 75.0053 1050.22 75.3093 1050.42 75.544C1050.62 75.7787 1050.92 75.9867 1051.33 76.168C1051.74 76.3493 1052.35 76.5573 1053.14 76.792C1054.04 77.048 1054.75 77.304 1055.26 77.56C1055.79 77.816 1056.18 78.136 1056.43 78.52C1056.69 78.8933 1056.82 79.3787 1056.82 79.976C1056.82 80.9787 1056.43 81.7627 1055.66 82.328C1054.91 82.8827 1053.88 83.16 1052.58 83.16ZM1061.99 83.16C1060.97 83.16 1060.19 82.8347 1059.63 82.184C1059.08 81.5227 1058.8 80.648 1058.8 79.56V75.048C1058.8 74.9413 1058.83 74.856 1058.9 74.792C1058.97 74.7173 1059.06 74.68 1059.17 74.68H1059.91C1060.01 74.68 1060.1 74.7173 1060.16 74.792C1060.24 74.856 1060.27 74.9413 1060.27 75.048V79.48C1060.27 81.1013 1060.98 81.912 1062.39 81.912C1063.07 81.912 1063.61 81.6987 1064 81.272C1064.41 80.8347 1064.61 80.2373 1064.61 79.48V75.048C1064.61 74.9413 1064.64 74.856 1064.71 74.792C1064.78 74.7173 1064.87 74.68 1064.98 74.68H1065.71C1065.82 74.68 1065.91 74.7173 1065.97 74.792C1066.04 74.856 1066.08 74.9413 1066.08 75.048V82.632C1066.08 82.7387 1066.04 82.8293 1065.97 82.904C1065.91 82.968 1065.82 83 1065.71 83H1065.03C1064.92 83 1064.83 82.968 1064.75 82.904C1064.69 82.8293 1064.66 82.7387 1064.66 82.632V81.912C1064.35 82.328 1063.99 82.6427 1063.57 82.856C1063.15 83.0587 1062.63 83.16 1061.99 83.16ZM1069.02 86.04C1068.91 86.04 1068.82 86.008 1068.75 85.944C1068.68 85.88 1068.65 85.7893 1068.65 85.672V75.048C1068.65 74.9307 1068.68 74.84 1068.75 74.776C1068.82 74.712 1068.91 74.68 1069.02 74.68H1069.69C1069.81 74.68 1069.9 74.712 1069.96 74.776C1070.03 74.84 1070.06 74.9307 1070.06 75.048V75.752C1070.68 74.9307 1071.56 74.52 1072.7 74.52C1073.82 74.52 1074.66 74.8773 1075.21 75.592C1075.78 76.296 1076.08 77.1973 1076.11 78.296C1076.12 78.4133 1076.12 78.5947 1076.12 78.84C1076.12 79.0853 1076.12 79.2667 1076.11 79.384C1076.08 80.472 1075.78 81.3733 1075.21 82.088C1074.66 82.8027 1073.82 83.16 1072.7 83.16C1071.56 83.16 1070.69 82.7547 1070.11 81.944V85.672C1070.11 85.7787 1070.07 85.864 1070 85.928C1069.93 86.0027 1069.85 86.04 1069.74 86.04H1069.02ZM1072.4 81.912C1073.16 81.912 1073.72 81.672 1074.08 81.192C1074.43 80.712 1074.62 80.0827 1074.65 79.304C1074.66 79.1973 1074.67 79.0427 1074.67 78.84C1074.67 76.792 1073.91 75.768 1072.4 75.768C1071.65 75.768 1071.08 76.0187 1070.7 76.52C1070.33 77.0107 1070.13 77.592 1070.11 78.264C1070.1 78.3813 1070.09 78.5893 1070.09 78.888C1070.09 79.1867 1070.1 79.3947 1070.11 79.512C1070.13 80.1627 1070.33 80.728 1070.72 81.208C1071.11 81.6773 1071.67 81.912 1072.4 81.912ZM1078.68 86.04C1078.57 86.04 1078.48 86.008 1078.41 85.944C1078.34 85.88 1078.31 85.7893 1078.31 85.672V75.048C1078.31 74.9307 1078.34 74.84 1078.41 74.776C1078.48 74.712 1078.57 74.68 1078.68 74.68H1079.35C1079.47 74.68 1079.56 74.712 1079.62 74.776C1079.69 74.84 1079.72 74.9307 1079.72 75.048V75.752C1080.34 74.9307 1081.22 74.52 1082.36 74.52C1083.48 74.52 1084.32 74.8773 1084.87 75.592C1085.44 76.296 1085.74 77.1973 1085.77 78.296C1085.78 78.4133 1085.78 78.5947 1085.78 78.84C1085.78 79.0853 1085.78 79.2667 1085.77 79.384C1085.74 80.472 1085.44 81.3733 1084.87 82.088C1084.32 82.8027 1083.48 83.16 1082.36 83.16C1081.22 83.16 1080.35 82.7547 1079.77 81.944V85.672C1079.77 85.7787 1079.73 85.864 1079.66 85.928C1079.59 86.0027 1079.51 86.04 1079.4 86.04H1078.68ZM1082.06 81.912C1082.82 81.912 1083.38 81.672 1083.74 81.192C1084.09 80.712 1084.28 80.0827 1084.31 79.304C1084.32 79.1973 1084.33 79.0427 1084.33 78.84C1084.33 76.792 1083.57 75.768 1082.06 75.768C1081.31 75.768 1080.74 76.0187 1080.36 76.52C1079.99 77.0107 1079.79 77.592 1079.77 78.264C1079.76 78.3813 1079.75 78.5893 1079.75 78.888C1079.75 79.1867 1079.76 79.3947 1079.77 79.512C1079.79 80.1627 1079.99 80.728 1080.38 81.208C1080.77 81.6773 1081.33 81.912 1082.06 81.912ZM1091.33 83.16C1090.16 83.16 1089.25 82.8293 1088.61 82.168C1087.98 81.5067 1087.65 80.6267 1087.6 79.528L1087.59 78.84L1087.6 78.152C1087.65 77.0533 1087.99 76.1733 1088.63 75.512C1089.28 74.8507 1090.18 74.52 1091.33 74.52C1092.48 74.52 1093.38 74.8507 1094.02 75.512C1094.67 76.1733 1095.02 77.0533 1095.06 78.152C1095.08 78.3867 1095.09 78.616 1095.09 78.84C1095.09 79.064 1095.08 79.2933 1095.06 79.528C1095.02 80.6267 1094.68 81.5067 1094.04 82.168C1093.41 82.8293 1092.5 83.16 1091.33 83.16ZM1091.33 81.96C1092.01 81.96 1092.55 81.7467 1092.95 81.32C1093.35 80.8827 1093.57 80.2587 1093.6 79.448C1093.61 79.3413 1093.62 79.1387 1093.62 78.84C1093.62 78.5413 1093.61 78.3387 1093.6 78.232C1093.57 77.4213 1093.35 76.8027 1092.95 76.376C1092.55 75.9387 1092.01 75.72 1091.33 75.72C1090.65 75.72 1090.1 75.9387 1089.7 76.376C1089.3 76.8027 1089.09 77.4213 1089.06 78.232L1089.04 78.84L1089.06 79.448C1089.09 80.2587 1089.3 80.8827 1089.7 81.32C1090.1 81.7467 1090.65 81.96 1091.33 81.96ZM1097.64 83C1097.53 83 1097.44 82.968 1097.37 82.904C1097.3 82.8293 1097.27 82.7387 1097.27 82.632V75.064C1097.27 74.9573 1097.3 74.8667 1097.37 74.792C1097.44 74.7173 1097.53 74.68 1097.64 74.68H1098.31C1098.43 74.68 1098.52 74.7173 1098.58 74.792C1098.66 74.856 1098.7 74.9467 1098.7 75.064V75.768C1099.13 75.0427 1099.87 74.68 1100.92 74.68H1101.54C1101.66 74.68 1101.75 74.712 1101.82 74.776C1101.88 74.84 1101.91 74.9307 1101.91 75.048V75.64C1101.91 75.7467 1101.88 75.8373 1101.82 75.912C1101.75 75.976 1101.66 76.008 1101.54 76.008H1100.63C1100.05 76.008 1099.58 76.1787 1099.24 76.52C1098.91 76.8613 1098.74 77.3253 1098.74 77.912V82.632C1098.74 82.7387 1098.71 82.8293 1098.63 82.904C1098.56 82.968 1098.47 83 1098.36 83H1097.64ZM1106.65 83C1104.99 83 1104.17 82.0667 1104.17 80.2V75.912H1102.9C1102.8 75.912 1102.71 75.88 1102.65 75.816C1102.58 75.752 1102.55 75.6667 1102.55 75.56V75.048C1102.55 74.9413 1102.58 74.856 1102.65 74.792C1102.71 74.7173 1102.8 74.68 1102.9 74.68H1104.17V72.008C1104.17 71.9013 1104.2 71.816 1104.26 71.752C1104.33 71.6773 1104.41 71.64 1104.52 71.64H1105.22C1105.33 71.64 1105.42 71.6773 1105.48 71.752C1105.55 71.816 1105.59 71.9013 1105.59 72.008V74.68H1107.58C1107.68 74.68 1107.77 74.7173 1107.83 74.792C1107.91 74.856 1107.94 74.9413 1107.94 75.048V75.56C1107.94 75.6667 1107.91 75.752 1107.83 75.816C1107.77 75.88 1107.68 75.912 1107.58 75.912H1105.59V80.088C1105.59 80.632 1105.68 81.0427 1105.85 81.32C1106.03 81.5973 1106.33 81.736 1106.76 81.736H1107.74C1107.84 81.736 1107.93 81.7733 1107.99 81.848C1108.06 81.912 1108.09 81.9973 1108.09 82.104V82.632C1108.09 82.7387 1108.06 82.8293 1107.99 82.904C1107.93 82.968 1107.84 83 1107.74 83H1106.65ZM1113.11 83.16C1112.02 83.16 1111.15 82.824 1110.5 82.152C1109.85 81.4693 1109.49 80.5413 1109.43 79.368L1109.41 78.824L1109.43 78.296C1109.49 77.144 1109.85 76.2267 1110.5 75.544C1111.15 74.8613 1112.02 74.52 1113.11 74.52C1114.28 74.52 1115.19 74.8933 1115.83 75.64C1116.48 76.3867 1116.8 77.4 1116.8 78.68V78.968C1116.8 79.0747 1116.77 79.1653 1116.69 79.24C1116.63 79.304 1116.54 79.336 1116.43 79.336H1110.88V79.48C1110.91 80.1733 1111.13 80.7653 1111.52 81.256C1111.92 81.7467 1112.44 81.992 1113.09 81.992C1113.59 81.992 1114 81.896 1114.31 81.704C1114.63 81.5013 1114.87 81.2933 1115.03 81.08C1115.12 80.952 1115.2 80.8773 1115.25 80.856C1115.3 80.824 1115.39 80.808 1115.52 80.808H1116.23C1116.32 80.808 1116.4 80.8347 1116.47 80.888C1116.54 80.9413 1116.58 81.0107 1116.58 81.096C1116.58 81.3307 1116.43 81.6133 1116.15 81.944C1115.86 82.2747 1115.45 82.5627 1114.91 82.808C1114.39 83.0427 1113.79 83.16 1113.11 83.16ZM1115.35 78.248V78.2C1115.35 77.4533 1115.14 76.8453 1114.74 76.376C1114.33 75.9067 1113.79 75.672 1113.11 75.672C1112.41 75.672 1111.87 75.9067 1111.47 76.376C1111.08 76.8453 1110.88 77.4533 1110.88 78.2V78.248H1115.35ZM1121.95 83.16C1120.83 83.16 1119.99 82.7973 1119.42 82.072C1118.87 81.3467 1118.57 80.4293 1118.52 79.32L1118.51 78.84L1118.52 78.36C1118.57 77.2613 1118.87 76.3493 1119.44 75.624C1120 74.888 1120.84 74.52 1121.95 74.52C1123.06 74.52 1123.92 74.9147 1124.54 75.704V72.008C1124.54 71.9013 1124.57 71.816 1124.64 71.752C1124.71 71.6773 1124.8 71.64 1124.91 71.64H1125.63C1125.73 71.64 1125.82 71.6773 1125.88 71.752C1125.96 71.816 1126 71.9013 1126 72.008V82.632C1126 82.7387 1125.96 82.8293 1125.88 82.904C1125.82 82.968 1125.73 83 1125.63 83H1124.94C1124.83 83 1124.75 82.968 1124.68 82.904C1124.62 82.8293 1124.59 82.7387 1124.59 82.632V81.944C1123.98 82.7547 1123.1 83.16 1121.95 83.16ZM1122.25 81.912C1123 81.912 1123.56 81.6667 1123.93 81.176C1124.31 80.6747 1124.51 80.0827 1124.54 79.4C1124.55 79.2827 1124.56 79.08 1124.56 78.792C1124.56 78.4933 1124.55 78.2853 1124.54 78.168C1124.52 77.5173 1124.31 76.9573 1123.92 76.488C1123.53 76.008 1122.98 75.768 1122.25 75.768C1121.48 75.768 1120.92 76.008 1120.57 76.488C1120.22 76.968 1120.03 77.5973 1120 78.376L1119.98 78.84C1119.98 80.888 1120.74 81.912 1122.25 81.912Z" fill="#E0E0E0"/>
<path d="M981.08 44C980.813 44 980.573 43.9067 980.36 43.72C980.173 43.5067 980.08 43.2667 980.08 43V24.28L974.72 28.4C974.507 28.5333 974.307 28.6 974.12 28.6C973.8 28.6 973.52 28.44 973.28 28.12L970.8 24.92C970.693 24.7333 970.64 24.5333 970.64 24.32C970.64 23.9467 970.787 23.6533 971.08 23.44L980.36 16.28C980.627 16.0933 980.933 16 981.28 16H986.56C986.853 16 987.093 16.0933 987.28 16.28C987.493 16.4667 987.6 16.7067 987.6 17V43C987.6 43.2933 987.493 43.5333 987.28 43.72C987.093 43.9067 986.853 44 986.56 44H981.08ZM997.036 44C996.796 44 996.596 43.92 996.436 43.76C996.276 43.5733 996.196 43.36 996.196 43.12C996.196 42.9333 996.25 42.76 996.356 42.6L1001.96 34.96C1001.61 35.04 1001.25 35.0667 1000.88 35.04C999.25 34.9333 997.703 34.4933 996.236 33.72C994.77 32.92 993.57 31.8267 992.636 30.44C991.73 29.0267 991.276 27.4267 991.276 25.64C991.276 23.88 991.716 22.24 992.596 20.72C993.503 19.1733 994.823 17.9333 996.556 17C998.316 16.0667 1000.42 15.6 1002.88 15.6C1005.36 15.6 1007.49 16.0267 1009.28 16.88C1011.06 17.7333 1012.41 18.9067 1013.32 20.4C1014.25 21.8667 1014.72 23.52 1014.72 25.36C1014.72 26.8267 1014.41 28.1733 1013.8 29.4C1013.21 30.6 1012.32 32.0133 1011.12 33.64L1010.4 34.64L1004.12 43.2C1003.74 43.7333 1003.26 44 1002.68 44H997.036ZM1002.96 29.6C1004.13 29.6 1005.09 29.24 1005.84 28.52C1006.61 27.8 1007 26.8267 1007 25.6C1007 24.3733 1006.61 23.4 1005.84 22.68C1005.06 21.96 1004.1 21.6 1002.96 21.6C1001.78 21.6 1000.81 21.96 1000.04 22.68C999.29 23.4 998.916 24.3733 998.916 25.6C998.916 26.8267 999.29 27.8 1000.04 28.52C1000.78 29.24 1001.76 29.6 1002.96 29.6ZM1028.94 44.44C1026.51 44.44 1024.42 44.0533 1022.66 43.28C1020.92 42.5067 1019.6 41.48 1018.7 40.2C1017.82 38.92 1017.35 37.52 1017.3 36C1017.3 35.76 1017.38 35.56 1017.54 35.4C1017.7 35.24 1017.9 35.16 1018.14 35.16H1023.78C1024.42 35.16 1024.86 35.4133 1025.1 35.92C1025.47 36.8 1025.96 37.44 1026.58 37.84C1027.22 38.24 1028 38.44 1028.94 38.44C1030.08 38.44 1031.03 38.0933 1031.78 37.4C1032.55 36.7067 1032.94 35.7333 1032.94 34.48C1032.94 33.3867 1032.56 32.48 1031.82 31.76C1031.07 31.04 1030.11 30.68 1028.94 30.68C1028.27 30.68 1027.74 30.7733 1027.34 30.96C1026.94 31.12 1026.55 31.3467 1026.18 31.64C1025.78 31.96 1025.43 32.12 1025.14 32.12H1019.58C1019.34 32.12 1019.12 32.04 1018.94 31.88C1018.78 31.6933 1018.7 31.48 1018.7 31.24L1020.18 17.2C1020.2 16.8267 1020.34 16.5333 1020.58 16.32C1020.84 16.1067 1021.15 16 1021.5 16H1037.78C1038.07 16 1038.31 16.0933 1038.5 16.28C1038.68 16.4667 1038.78 16.7067 1038.78 17V21C1038.78 21.2667 1038.68 21.5067 1038.5 21.72C1038.31 21.9067 1038.07 22 1037.78 22H1026.14L1025.66 26.92C1026.3 26.4667 1027.02 26.1333 1027.82 25.92C1028.62 25.68 1029.66 25.56 1030.94 25.56C1032.64 25.56 1034.24 25.9467 1035.74 26.72C1037.23 27.4667 1038.42 28.5333 1039.3 29.92C1040.2 31.3067 1040.66 32.8933 1040.66 34.68C1040.66 36.5467 1040.19 38.2267 1039.26 39.72C1038.32 41.1867 1036.96 42.3467 1035.18 43.2C1033.42 44.0267 1031.34 44.44 1028.94 44.44Z" fill="white"/>
<circle opacity="0.1" cx="906" cy="40" r="40" fill="white"/>
<path d="M918.374 27.6364C916.752 25.9982 914.822 24.6967 912.696 23.8066C910.569 22.9166 908.288 22.4554 905.982 22.4498C903.677 22.4441 901.393 22.894 899.262 23.7736C897.131 24.6532 895.195 25.9452 893.565 27.5753C891.935 29.2055 890.643 31.1417 889.763 33.2727C888.883 35.4036 888.434 37.6874 888.439 39.9928C888.445 42.2982 888.906 44.5797 889.796 46.7063C890.686 48.8329 891.988 50.7627 893.626 52.3848C895.248 54.023 897.178 55.3245 899.304 56.2146C901.431 57.1047 903.713 57.5658 906.018 57.5715C908.323 57.5772 910.607 57.1273 912.738 56.2477C914.869 55.3681 916.805 54.0761 918.435 52.4459C920.066 50.8158 921.358 48.8796 922.237 46.7486C923.117 44.6176 923.567 42.3338 923.561 40.0285C923.555 37.7231 923.094 35.4416 922.204 33.3149C921.314 31.1883 920.012 29.2585 918.374 27.6364ZM891 40.0106C891 38.6831 891.176 37.3613 891.524 36.0802C892.097 37.3145 892.93 38.3809 893.496 39.6473C894.228 41.2755 896.194 40.8239 897.062 42.2505C897.832 43.5169 897.009 45.1184 897.586 46.4434C898.005 47.4052 898.992 47.6153 899.674 48.3184C900.37 49.0278 900.355 49.9997 900.461 50.9247C900.581 52.0115 900.775 53.0888 901.043 54.1489C901.043 54.1567 901.043 54.1653 901.049 54.1731C895.203 52.12 891 46.5473 891 40.0106ZM906 55.0106C905.162 55.0104 904.326 54.9403 903.5 54.8013C903.509 54.5895 903.513 54.3919 903.534 54.2544C903.724 53.0122 904.345 51.7973 905.184 50.8677C906.013 49.9505 907.149 49.3302 907.849 48.2895C908.535 47.2739 908.741 45.9067 908.458 44.72C908.042 42.9669 905.659 42.3817 904.375 41.4309C903.637 40.8841 902.98 40.0387 902.01 39.97C901.563 39.9387 901.189 40.0348 900.746 39.9208C900.34 39.8153 900.021 39.5966 899.588 39.6536C898.78 39.7598 898.27 40.6239 897.401 40.5067C896.577 40.3966 895.727 39.4317 895.54 38.6466C895.299 37.6372 896.098 37.3098 896.953 37.22C897.31 37.1825 897.711 37.1419 898.054 37.2731C898.506 37.4403 898.719 37.8825 899.124 38.1059C899.884 38.5231 900.038 37.8567 899.922 37.1817C899.748 36.1708 899.545 35.7591 900.446 35.063C901.071 34.5833 901.606 34.2364 901.506 33.3747C901.446 32.8684 901.169 32.6395 901.427 32.1356C901.624 31.752 902.162 31.4059 902.513 31.177C903.418 30.5864 906.392 30.6302 905.177 28.977C904.82 28.4919 904.161 27.6247 903.536 27.5059C902.755 27.3583 902.408 28.2302 901.863 28.6145C901.301 29.0122 900.206 29.4637 899.642 28.8489C898.884 28.0216 900.145 27.7505 900.424 27.1723C900.552 26.9028 900.424 26.5286 900.206 26.1762C900.488 26.0575 900.775 25.9473 901.066 25.8458C901.248 25.9805 901.465 26.0617 901.691 26.0802C902.213 26.1145 902.706 25.8317 903.163 26.188C903.669 26.5786 904.034 27.0723 904.706 27.1942C905.356 27.3122 906.044 26.9333 906.205 26.2677C906.302 25.863 906.205 25.4356 906.111 25.0177C909.033 25.0345 911.885 25.9095 914.314 27.5341C914.158 27.4747 913.971 27.4817 913.741 27.5887C913.267 27.8091 912.595 28.37 912.539 28.9262C912.476 29.5575 913.407 29.6466 913.849 29.6466C914.513 29.6466 915.186 29.3497 914.972 28.5825C914.879 28.2497 914.752 27.9036 914.549 27.6942C915.039 28.0343 915.508 28.4032 915.955 28.7989C915.948 28.8059 915.941 28.8122 915.934 28.82C915.484 29.2887 914.961 29.6598 914.653 30.2302C914.436 30.6317 914.192 30.8223 913.752 30.9262C913.509 30.9833 913.233 31.0044 913.03 31.1669C912.464 31.6122 912.786 32.6825 913.322 33.0036C913.999 33.4091 915.004 33.2184 915.515 32.6395C915.914 32.1864 916.149 31.3997 916.867 31.4005C917.183 31.3998 917.487 31.5236 917.713 31.745C918.009 32.0528 917.951 32.3403 918.014 32.7247C918.126 33.4075 918.728 33.0372 919.095 32.6927C919.362 33.168 919.603 33.6575 919.817 34.1591C919.413 34.7395 919.093 35.3723 918.124 34.6958C917.543 34.2903 917.186 33.702 916.457 33.5192C915.82 33.363 915.168 33.5255 914.539 33.6341C913.824 33.7583 912.977 33.813 912.434 34.3544C911.91 34.8762 911.633 35.5747 911.075 36.0989C909.996 37.1145 909.541 38.2231 910.239 39.6591C910.911 41.0395 912.317 41.7887 913.833 41.6903C915.323 41.5911 916.87 40.727 916.827 42.8919C916.812 43.6583 916.972 44.1888 917.207 44.9005C917.425 45.5567 917.41 46.1927 917.46 46.87C917.508 47.6632 917.632 48.4499 917.831 49.2192C916.43 51.0222 914.636 52.4812 912.586 53.485C910.536 54.4887 908.283 55.0105 906 55.0106Z" fill="#3671E9"/>
<path d="M541.224 83C541.117 83 541.027 82.968 540.952 82.904C540.888 82.8293 540.856 82.7387 540.856 82.632V73.176H537.768C537.661 73.176 537.571 73.144 537.496 73.08C537.432 73.0053 537.4 72.9147 537.4 72.808V72.184C537.4 72.0667 537.432 71.976 537.496 71.912C537.571 71.8373 537.661 71.8 537.768 71.8H545.448C545.565 71.8 545.656 71.8373 545.72 71.912C545.784 71.976 545.816 72.0667 545.816 72.184V72.808C545.816 72.9147 545.779 73.0053 545.704 73.08C545.64 73.144 545.555 73.176 545.448 73.176H542.376V82.632C542.376 82.7387 542.339 82.8293 542.264 82.904C542.189 82.968 542.099 83 541.992 83H541.224ZM546.634 83C546.528 83 546.437 82.968 546.362 82.904C546.298 82.8293 546.266 82.7387 546.266 82.632V75.064C546.266 74.9573 546.298 74.8667 546.362 74.792C546.437 74.7173 546.528 74.68 546.634 74.68H547.306C547.424 74.68 547.514 74.7173 547.578 74.792C547.653 74.856 547.69 74.9467 547.69 75.064V75.768C548.128 75.0427 548.869 74.68 549.914 74.68H550.538C550.656 74.68 550.746 74.712 550.81 74.776C550.874 74.84 550.906 74.9307 550.906 75.048V75.64C550.906 75.7467 550.874 75.8373 550.81 75.912C550.746 75.976 550.656 76.008 550.538 76.008H549.626C549.04 76.008 548.576 76.1787 548.234 76.52C547.904 76.8613 547.738 77.3253 547.738 77.912V82.632C547.738 82.7387 547.701 82.8293 547.626 82.904C547.552 82.968 547.461 83 547.354 83H546.634ZM555.546 83.16C554.533 83.16 553.749 82.8347 553.194 82.184C552.639 81.5227 552.362 80.648 552.362 79.56V75.048C552.362 74.9413 552.394 74.856 552.458 74.792C552.533 74.7173 552.623 74.68 552.73 74.68H553.466C553.573 74.68 553.658 74.7173 553.722 74.792C553.797 74.856 553.834 74.9413 553.834 75.048V79.48C553.834 81.1013 554.538 81.912 555.946 81.912C556.629 81.912 557.167 81.6987 557.562 81.272C557.967 80.8347 558.17 80.2373 558.17 79.48V75.048C558.17 74.9413 558.202 74.856 558.266 74.792C558.341 74.7173 558.431 74.68 558.538 74.68H559.274C559.381 74.68 559.466 74.7173 559.53 74.792C559.605 74.856 559.642 74.9413 559.642 75.048V82.632C559.642 82.7387 559.605 82.8293 559.53 82.904C559.466 82.968 559.381 83 559.274 83H558.586C558.479 83 558.389 82.968 558.314 82.904C558.25 82.8293 558.218 82.7387 558.218 82.632V81.912C557.909 82.328 557.546 82.6427 557.13 82.856C556.714 83.0587 556.186 83.16 555.546 83.16ZM565.044 83.16C564.308 83.16 563.684 83.0427 563.172 82.808C562.67 82.5627 562.297 82.2853 562.052 81.976C561.806 81.6667 561.684 81.4107 561.684 81.208C561.684 81.1013 561.721 81.0213 561.796 80.968C561.87 80.904 561.95 80.872 562.036 80.872H562.708C562.772 80.872 562.82 80.8827 562.852 80.904C562.894 80.9253 562.948 80.9733 563.012 81.048C563.257 81.3467 563.529 81.5813 563.828 81.752C564.137 81.9227 564.548 82.008 565.06 82.008C565.636 82.008 566.094 81.9013 566.436 81.688C566.788 81.4747 566.964 81.1653 566.964 80.76C566.964 80.4933 566.889 80.28 566.74 80.12C566.59 79.96 566.34 79.816 565.988 79.688C565.646 79.56 565.134 79.4213 564.452 79.272C563.524 79.0693 562.868 78.776 562.484 78.392C562.1 78.008 561.908 77.512 561.908 76.904C561.908 76.5093 562.025 76.1307 562.26 75.768C562.494 75.3947 562.841 75.096 563.3 74.872C563.769 74.6373 564.324 74.52 564.964 74.52C565.636 74.52 566.206 74.632 566.676 74.856C567.156 75.08 567.513 75.3413 567.748 75.64C567.993 75.9387 568.116 76.1893 568.116 76.392C568.116 76.488 568.078 76.568 568.004 76.632C567.94 76.696 567.86 76.728 567.764 76.728H567.156C567.006 76.728 566.9 76.6693 566.836 76.552C566.654 76.3493 566.5 76.1947 566.372 76.088C566.254 75.9707 566.078 75.8747 565.844 75.8C565.609 75.7147 565.316 75.672 564.964 75.672C564.441 75.672 564.041 75.784 563.764 76.008C563.486 76.2213 563.348 76.5093 563.348 76.872C563.348 77.096 563.406 77.288 563.524 77.448C563.641 77.5973 563.865 77.7413 564.196 77.88C564.526 78.008 565.017 78.1413 565.668 78.28C566.681 78.4933 567.396 78.7973 567.812 79.192C568.238 79.5867 568.452 80.0933 568.452 80.712C568.452 81.1707 568.318 81.5867 568.052 81.96C567.796 82.3333 567.406 82.6267 566.884 82.84C566.372 83.0533 565.758 83.16 565.044 83.16ZM573.665 83C572.012 83 571.185 82.0667 571.185 80.2V75.912H569.921C569.814 75.912 569.729 75.88 569.665 75.816C569.601 75.752 569.569 75.6667 569.569 75.56V75.048C569.569 74.9413 569.601 74.856 569.665 74.792C569.729 74.7173 569.814 74.68 569.921 74.68H571.185V72.008C571.185 71.9013 571.217 71.816 571.281 71.752C571.345 71.6773 571.43 71.64 571.537 71.64H572.241C572.348 71.64 572.433 71.6773 572.497 71.752C572.572 71.816 572.609 71.9013 572.609 72.008V74.68H574.593C574.7 74.68 574.785 74.7173 574.849 74.792C574.924 74.856 574.961 74.9413 574.961 75.048V75.56C574.961 75.6667 574.924 75.752 574.849 75.816C574.785 75.88 574.7 75.912 574.593 75.912H572.609V80.088C572.609 80.632 572.694 81.0427 572.865 81.32C573.046 81.5973 573.35 81.736 573.777 81.736H574.753C574.86 81.736 574.945 81.7733 575.009 81.848C575.073 81.912 575.105 81.9973 575.105 82.104V82.632C575.105 82.7387 575.073 82.8293 575.009 82.904C574.945 82.968 574.86 83 574.753 83H573.665ZM580.124 83.16C579.036 83.16 578.167 82.824 577.516 82.152C576.865 81.4693 576.508 80.5413 576.444 79.368L576.428 78.824L576.444 78.296C576.508 77.144 576.865 76.2267 577.516 75.544C578.167 74.8613 579.036 74.52 580.124 74.52C581.297 74.52 582.204 74.8933 582.844 75.64C583.495 76.3867 583.82 77.4 583.82 78.68V78.968C583.82 79.0747 583.783 79.1653 583.708 79.24C583.644 79.304 583.559 79.336 583.452 79.336H577.9V79.48C577.932 80.1733 578.145 80.7653 578.54 81.256C578.935 81.7467 579.457 81.992 580.108 81.992C580.609 81.992 581.015 81.896 581.324 81.704C581.644 81.5013 581.884 81.2933 582.044 81.08C582.14 80.952 582.215 80.8773 582.268 80.856C582.321 80.824 582.412 80.808 582.54 80.808H583.244C583.34 80.808 583.42 80.8347 583.484 80.888C583.559 80.9413 583.596 81.0107 583.596 81.096C583.596 81.3307 583.452 81.6133 583.164 81.944C582.876 82.2747 582.465 82.5627 581.932 82.808C581.409 83.0427 580.807 83.16 580.124 83.16ZM582.364 78.248V78.2C582.364 77.4533 582.161 76.8453 581.756 76.376C581.351 75.9067 580.807 75.672 580.124 75.672C579.431 75.672 578.887 75.9067 578.492 76.376C578.097 76.8453 577.9 77.4533 577.9 78.2V78.248H582.364ZM588.966 83.16C587.846 83.16 587.003 82.7973 586.438 82.072C585.883 81.3467 585.584 80.4293 585.542 79.32L585.526 78.84L585.542 78.36C585.584 77.2613 585.888 76.3493 586.454 75.624C587.019 74.888 587.856 74.52 588.966 74.52C590.075 74.52 590.939 74.9147 591.558 75.704V72.008C591.558 71.9013 591.59 71.816 591.654 71.752C591.728 71.6773 591.819 71.64 591.926 71.64H592.646C592.752 71.64 592.838 71.6773 592.902 71.752C592.976 71.816 593.014 71.9013 593.014 72.008V82.632C593.014 82.7387 592.976 82.8293 592.902 82.904C592.838 82.968 592.752 83 592.646 83H591.958C591.851 83 591.766 82.968 591.702 82.904C591.638 82.8293 591.606 82.7387 591.606 82.632V81.944C590.998 82.7547 590.118 83.16 588.966 83.16ZM589.27 81.912C590.016 81.912 590.576 81.6667 590.95 81.176C591.323 80.6747 591.526 80.0827 591.558 79.4C591.568 79.2827 591.574 79.08 591.574 78.792C591.574 78.4933 591.568 78.2853 591.558 78.168C591.536 77.5173 591.328 76.9573 590.934 76.488C590.55 76.008 589.995 75.768 589.27 75.768C588.502 75.768 587.942 76.008 587.59 76.488C587.238 76.968 587.046 77.5973 587.014 78.376L586.998 78.84C586.998 80.888 587.755 81.912 589.27 81.912ZM601.513 83C601.247 83 601.081 82.8613 601.017 82.584L598.953 72.296L598.921 72.12C598.921 72.0347 598.953 71.96 599.017 71.896C599.081 71.832 599.156 71.8 599.241 71.8H600.025C600.249 71.8 600.377 71.8907 600.409 72.072L602.057 80.424L603.833 74.664C603.897 74.408 604.063 74.28 604.329 74.28H604.889C605.145 74.28 605.316 74.408 605.401 74.664L607.161 80.424L608.809 72.072C608.841 71.8907 608.975 71.8 609.209 71.8H609.977C610.063 71.8 610.137 71.832 610.201 71.896C610.265 71.96 610.297 72.0347 610.297 72.12C610.297 72.184 610.292 72.2427 610.281 72.296L608.201 82.584C608.148 82.8613 607.983 83 607.705 83H607.129C606.863 83 606.687 82.8667 606.601 82.6L604.617 76.44L602.617 82.6C602.543 82.8667 602.372 83 602.105 83H601.513ZM614.303 83.16C613.781 83.16 613.295 83.0533 612.847 82.84C612.41 82.6267 612.058 82.3387 611.791 81.976C611.535 81.6027 611.407 81.192 611.407 80.744C611.407 80.04 611.695 79.464 612.271 79.016C612.847 78.568 613.631 78.2693 614.623 78.12L617.023 77.784V77.32C617.023 76.2213 616.389 75.672 615.119 75.672C614.629 75.672 614.234 75.7733 613.935 75.976C613.637 76.168 613.418 76.3973 613.279 76.664C613.237 76.7707 613.189 76.8453 613.135 76.888C613.093 76.92 613.029 76.936 612.943 76.936H612.319C612.223 76.936 612.138 76.904 612.063 76.84C611.999 76.7653 611.967 76.68 611.967 76.584C611.967 76.3387 612.079 76.056 612.303 75.736C612.538 75.4053 612.895 75.1227 613.375 74.888C613.855 74.6427 614.442 74.52 615.135 74.52C616.33 74.52 617.183 74.7973 617.695 75.352C618.218 75.9067 618.479 76.6 618.479 77.432V82.632C618.479 82.7387 618.442 82.8293 618.367 82.904C618.303 82.968 618.218 83 618.111 83H617.407C617.301 83 617.215 82.968 617.151 82.904C617.087 82.8293 617.055 82.7387 617.055 82.632V81.928C616.821 82.28 616.479 82.5733 616.031 82.808C615.583 83.0427 615.007 83.16 614.303 83.16ZM614.623 81.992C615.327 81.992 615.903 81.7627 616.351 81.304C616.799 80.8453 617.023 80.1787 617.023 79.304V78.856L615.151 79.128C614.383 79.2347 613.802 79.416 613.407 79.672C613.013 79.928 612.815 80.248 612.815 80.632C612.815 81.0693 612.991 81.4053 613.343 81.64C613.706 81.8747 614.133 81.992 614.623 81.992ZM621.34 83C621.234 83 621.143 82.968 621.068 82.904C621.004 82.8293 620.972 82.7387 620.972 82.632V72.008C620.972 71.8907 621.004 71.8 621.068 71.736C621.143 71.672 621.234 71.64 621.34 71.64H622.044C622.151 71.64 622.236 71.6773 622.3 71.752C622.375 71.816 622.412 71.9013 622.412 72.008V82.632C622.412 82.7387 622.375 82.8293 622.3 82.904C622.236 82.968 622.151 83 622.044 83H621.34ZM625.36 83C625.253 83 625.162 82.968 625.088 82.904C625.024 82.8293 624.992 82.7387 624.992 82.632V72.008C624.992 71.8907 625.024 71.8 625.088 71.736C625.162 71.672 625.253 71.64 625.36 71.64H626.064C626.17 71.64 626.256 71.6773 626.32 71.752C626.394 71.816 626.432 71.9013 626.432 72.008V82.632C626.432 82.7387 626.394 82.8293 626.32 82.904C626.256 82.968 626.17 83 626.064 83H625.36ZM632.291 83.16C631.203 83.16 630.334 82.824 629.683 82.152C629.032 81.4693 628.675 80.5413 628.611 79.368L628.595 78.824L628.611 78.296C628.675 77.144 629.032 76.2267 629.683 75.544C630.334 74.8613 631.203 74.52 632.291 74.52C633.464 74.52 634.371 74.8933 635.011 75.64C635.662 76.3867 635.987 77.4 635.987 78.68V78.968C635.987 79.0747 635.95 79.1653 635.875 79.24C635.811 79.304 635.726 79.336 635.619 79.336H630.067V79.48C630.099 80.1733 630.312 80.7653 630.707 81.256C631.102 81.7467 631.624 81.992 632.275 81.992C632.776 81.992 633.182 81.896 633.491 81.704C633.811 81.5013 634.051 81.2933 634.211 81.08C634.307 80.952 634.382 80.8773 634.435 80.856C634.488 80.824 634.579 80.808 634.707 80.808H635.411C635.507 80.808 635.587 80.8347 635.651 80.888C635.726 80.9413 635.763 81.0107 635.763 81.096C635.763 81.3307 635.619 81.6133 635.331 81.944C635.043 82.2747 634.632 82.5627 634.099 82.808C633.576 83.0427 632.974 83.16 632.291 83.16ZM634.531 78.248V78.2C634.531 77.4533 634.328 76.8453 633.923 76.376C633.518 75.9067 632.974 75.672 632.291 75.672C631.598 75.672 631.054 75.9067 630.659 76.376C630.264 76.8453 630.067 77.4533 630.067 78.2V78.248H634.531ZM641.246 83C639.592 83 638.766 82.0667 638.766 80.2V75.912H637.502C637.395 75.912 637.31 75.88 637.246 75.816C637.182 75.752 637.15 75.6667 637.15 75.56V75.048C637.15 74.9413 637.182 74.856 637.246 74.792C637.31 74.7173 637.395 74.68 637.502 74.68H638.766V72.008C638.766 71.9013 638.798 71.816 638.862 71.752C638.926 71.6773 639.011 71.64 639.118 71.64H639.822C639.928 71.64 640.014 71.6773 640.078 71.752C640.152 71.816 640.19 71.9013 640.19 72.008V74.68H642.174C642.28 74.68 642.366 74.7173 642.43 74.792C642.504 74.856 642.542 74.9413 642.542 75.048V75.56C642.542 75.6667 642.504 75.752 642.43 75.816C642.366 75.88 642.28 75.912 642.174 75.912H640.19V80.088C640.19 80.632 640.275 81.0427 640.446 81.32C640.627 81.5973 640.931 81.736 641.358 81.736H642.334C642.44 81.736 642.526 81.7733 642.59 81.848C642.654 81.912 642.686 81.9973 642.686 82.104V82.632C642.686 82.7387 642.654 82.8293 642.59 82.904C642.526 82.968 642.44 83 642.334 83H641.246ZM647.257 83.16C646.521 83.16 645.897 83.0427 645.385 82.808C644.883 82.5627 644.51 82.2853 644.265 81.976C644.019 81.6667 643.897 81.4107 643.897 81.208C643.897 81.1013 643.934 81.0213 644.009 80.968C644.083 80.904 644.163 80.872 644.249 80.872H644.921C644.985 80.872 645.033 80.8827 645.065 80.904C645.107 80.9253 645.161 80.9733 645.225 81.048C645.47 81.3467 645.742 81.5813 646.041 81.752C646.35 81.9227 646.761 82.008 647.273 82.008C647.849 82.008 648.307 81.9013 648.649 81.688C649.001 81.4747 649.177 81.1653 649.177 80.76C649.177 80.4933 649.102 80.28 648.953 80.12C648.803 79.96 648.553 79.816 648.201 79.688C647.859 79.56 647.347 79.4213 646.665 79.272C645.737 79.0693 645.081 78.776 644.697 78.392C644.313 78.008 644.121 77.512 644.121 76.904C644.121 76.5093 644.238 76.1307 644.473 75.768C644.707 75.3947 645.054 75.096 645.513 74.872C645.982 74.6373 646.537 74.52 647.177 74.52C647.849 74.52 648.419 74.632 648.889 74.856C649.369 75.08 649.726 75.3413 649.961 75.64C650.206 75.9387 650.329 76.1893 650.329 76.392C650.329 76.488 650.291 76.568 650.217 76.632C650.153 76.696 650.073 76.728 649.977 76.728H649.369C649.219 76.728 649.113 76.6693 649.049 76.552C648.867 76.3493 648.713 76.1947 648.585 76.088C648.467 75.9707 648.291 75.8747 648.057 75.8C647.822 75.7147 647.529 75.672 647.177 75.672C646.654 75.672 646.254 75.784 645.977 76.008C645.699 76.2213 645.561 76.5093 645.561 76.872C645.561 77.096 645.619 77.288 645.737 77.448C645.854 77.5973 646.078 77.7413 646.409 77.88C646.739 78.008 647.23 78.1413 647.881 78.28C648.894 78.4933 649.609 78.7973 650.025 79.192C650.451 79.5867 650.665 80.0933 650.665 80.712C650.665 81.1707 650.531 81.5867 650.265 81.96C650.009 82.3333 649.619 82.6267 649.097 82.84C648.585 83.0533 647.971 83.16 647.257 83.16ZM657.351 83C657.245 83 657.159 82.968 657.095 82.904C657.031 82.8293 656.999 82.7387 656.999 82.632V72.168C656.999 72.0613 657.031 71.976 657.095 71.912C657.159 71.8373 657.245 71.8 657.351 71.8H658.151C658.269 71.8 658.359 71.832 658.423 71.896C658.487 71.96 658.519 72.0507 658.519 72.168V82.632C658.519 82.7387 658.482 82.8293 658.407 82.904C658.343 82.968 658.258 83 658.151 83H657.351ZM661.663 83C661.556 83 661.466 82.968 661.391 82.904C661.327 82.8293 661.295 82.7387 661.295 82.632V75.048C661.295 74.9413 661.327 74.856 661.391 74.792C661.466 74.7173 661.556 74.68 661.663 74.68H662.351C662.468 74.68 662.559 74.712 662.623 74.776C662.687 74.84 662.719 74.9307 662.719 75.048V75.752C663.039 75.3573 663.407 75.0533 663.823 74.84C664.25 74.6267 664.778 74.52 665.407 74.52C666.431 74.52 667.226 74.8507 667.791 75.512C668.356 76.1627 668.639 77.0267 668.639 78.104V82.632C668.639 82.7387 668.602 82.8293 668.527 82.904C668.463 82.968 668.378 83 668.271 83H667.535C667.428 83 667.338 82.968 667.263 82.904C667.199 82.8293 667.167 82.7387 667.167 82.632V78.2C667.167 77.432 666.98 76.8347 666.607 76.408C666.234 75.9813 665.7 75.768 665.007 75.768C664.324 75.768 663.78 75.9867 663.375 76.424C662.97 76.8507 662.767 77.4427 662.767 78.2V82.632C662.767 82.7387 662.73 82.8293 662.655 82.904C662.591 82.968 662.506 83 662.399 83H661.663ZM673.773 83C673.496 83 673.298 82.8667 673.181 82.6L670.205 75.176C670.194 75.144 670.189 75.0907 670.189 75.016C670.189 74.92 670.221 74.84 670.285 74.776C670.349 74.712 670.424 74.68 670.509 74.68H671.245C671.416 74.68 671.544 74.7653 671.629 74.936L674.093 81.32L676.557 74.936C676.578 74.872 676.621 74.8133 676.685 74.76C676.76 74.7067 676.845 74.68 676.941 74.68H677.677C677.762 74.68 677.837 74.712 677.901 74.776C677.965 74.84 677.997 74.92 677.997 75.016L677.965 75.176L675.005 82.6C674.888 82.8667 674.69 83 674.413 83H673.773ZM682.864 83.16C681.776 83.16 680.907 82.824 680.256 82.152C679.605 81.4693 679.248 80.5413 679.184 79.368L679.168 78.824L679.184 78.296C679.248 77.144 679.605 76.2267 680.256 75.544C680.907 74.8613 681.776 74.52 682.864 74.52C684.037 74.52 684.944 74.8933 685.584 75.64C686.235 76.3867 686.56 77.4 686.56 78.68V78.968C686.56 79.0747 686.523 79.1653 686.448 79.24C686.384 79.304 686.299 79.336 686.192 79.336H680.64V79.48C680.672 80.1733 680.885 80.7653 681.28 81.256C681.675 81.7467 682.197 81.992 682.848 81.992C683.349 81.992 683.755 81.896 684.064 81.704C684.384 81.5013 684.624 81.2933 684.784 81.08C684.88 80.952 684.955 80.8773 685.008 80.856C685.061 80.824 685.152 80.808 685.28 80.808H685.984C686.08 80.808 686.16 80.8347 686.224 80.888C686.299 80.9413 686.336 81.0107 686.336 81.096C686.336 81.3307 686.192 81.6133 685.904 81.944C685.616 82.2747 685.205 82.5627 684.672 82.808C684.149 83.0427 683.547 83.16 682.864 83.16ZM685.104 78.248V78.2C685.104 77.4533 684.901 76.8453 684.496 76.376C684.091 75.9067 683.547 75.672 682.864 75.672C682.171 75.672 681.627 75.9067 681.232 76.376C680.837 76.8453 680.64 77.4533 680.64 78.2V78.248H685.104ZM691.514 83.16C690.778 83.16 690.154 83.0427 689.642 82.808C689.14 82.5627 688.767 82.2853 688.522 81.976C688.276 81.6667 688.154 81.4107 688.154 81.208C688.154 81.1013 688.191 81.0213 688.266 80.968C688.34 80.904 688.42 80.872 688.506 80.872H689.178C689.242 80.872 689.29 80.8827 689.322 80.904C689.364 80.9253 689.418 80.9733 689.482 81.048C689.727 81.3467 689.999 81.5813 690.298 81.752C690.607 81.9227 691.018 82.008 691.53 82.008C692.106 82.008 692.564 81.9013 692.906 81.688C693.258 81.4747 693.434 81.1653 693.434 80.76C693.434 80.4933 693.359 80.28 693.21 80.12C693.06 79.96 692.81 79.816 692.458 79.688C692.116 79.56 691.604 79.4213 690.922 79.272C689.994 79.0693 689.338 78.776 688.954 78.392C688.57 78.008 688.378 77.512 688.378 76.904C688.378 76.5093 688.495 76.1307 688.73 75.768C688.964 75.3947 689.311 75.096 689.77 74.872C690.239 74.6373 690.794 74.52 691.434 74.52C692.106 74.52 692.676 74.632 693.146 74.856C693.626 75.08 693.983 75.3413 694.218 75.64C694.463 75.9387 694.586 76.1893 694.586 76.392C694.586 76.488 694.548 76.568 694.474 76.632C694.41 76.696 694.33 76.728 694.234 76.728H693.626C693.476 76.728 693.37 76.6693 693.306 76.552C693.124 76.3493 692.97 76.1947 692.842 76.088C692.724 75.9707 692.548 75.8747 692.314 75.8C692.079 75.7147 691.786 75.672 691.434 75.672C690.911 75.672 690.511 75.784 690.234 76.008C689.956 76.2213 689.818 76.5093 689.818 76.872C689.818 77.096 689.876 77.288 689.994 77.448C690.111 77.5973 690.335 77.7413 690.666 77.88C690.996 78.008 691.487 78.1413 692.138 78.28C693.151 78.4933 693.866 78.7973 694.282 79.192C694.708 79.5867 694.922 80.0933 694.922 80.712C694.922 81.1707 694.788 81.5867 694.522 81.96C694.266 82.3333 693.876 82.6267 693.354 82.84C692.842 83.0533 692.228 83.16 691.514 83.16ZM700.135 83C698.482 83 697.655 82.0667 697.655 80.2V75.912H696.391C696.284 75.912 696.199 75.88 696.135 75.816C696.071 75.752 696.039 75.6667 696.039 75.56V75.048C696.039 74.9413 696.071 74.856 696.135 74.792C696.199 74.7173 696.284 74.68 696.391 74.68H697.655V72.008C697.655 71.9013 697.687 71.816 697.751 71.752C697.815 71.6773 697.9 71.64 698.007 71.64H698.711C698.818 71.64 698.903 71.6773 698.967 71.752C699.042 71.816 699.079 71.9013 699.079 72.008V74.68H701.063C701.17 74.68 701.255 74.7173 701.319 74.792C701.394 74.856 701.431 74.9413 701.431 75.048V75.56C701.431 75.6667 701.394 75.752 701.319 75.816C701.255 75.88 701.17 75.912 701.063 75.912H699.079V80.088C699.079 80.632 699.164 81.0427 699.335 81.32C699.516 81.5973 699.82 81.736 700.247 81.736H701.223C701.33 81.736 701.415 81.7733 701.479 81.848C701.543 81.912 701.575 81.9973 701.575 82.104V82.632C701.575 82.7387 701.543 82.8293 701.479 82.904C701.415 82.968 701.33 83 701.223 83H700.135ZM706.674 83.16C705.501 83.16 704.594 82.8293 703.954 82.168C703.325 81.5067 702.989 80.6267 702.946 79.528L702.93 78.84L702.946 78.152C702.989 77.0533 703.33 76.1733 703.97 75.512C704.621 74.8507 705.522 74.52 706.674 74.52C707.826 74.52 708.722 74.8507 709.362 75.512C710.013 76.1733 710.359 77.0533 710.402 78.152C710.423 78.3867 710.434 78.616 710.434 78.84C710.434 79.064 710.423 79.2933 710.402 79.528C710.359 80.6267 710.018 81.5067 709.378 82.168C708.749 82.8293 707.847 83.16 706.674 83.16ZM706.674 81.96C707.357 81.96 707.895 81.7467 708.29 81.32C708.695 80.8827 708.914 80.2587 708.946 79.448C708.957 79.3413 708.962 79.1387 708.962 78.84C708.962 78.5413 708.957 78.3387 708.946 78.232C708.914 77.4213 708.695 76.8027 708.29 76.376C707.895 75.9387 707.357 75.72 706.674 75.72C705.991 75.72 705.447 75.9387 705.042 76.376C704.647 76.8027 704.434 77.4213 704.402 78.232L704.386 78.84L704.402 79.448C704.434 80.2587 704.647 80.8827 705.042 81.32C705.447 81.7467 705.991 81.96 706.674 81.96ZM712.982 83C712.876 83 712.785 82.968 712.71 82.904C712.646 82.8293 712.614 82.7387 712.614 82.632V75.064C712.614 74.9573 712.646 74.8667 712.71 74.792C712.785 74.7173 712.876 74.68 712.982 74.68H713.654C713.772 74.68 713.862 74.7173 713.926 74.792C714.001 74.856 714.038 74.9467 714.038 75.064V75.768C714.476 75.0427 715.217 74.68 716.262 74.68H716.886C717.004 74.68 717.094 74.712 717.158 74.776C717.222 74.84 717.254 74.9307 717.254 75.048V75.64C717.254 75.7467 717.222 75.8373 717.158 75.912C717.094 75.976 717.004 76.008 716.886 76.008H715.974C715.388 76.008 714.924 76.1787 714.582 76.52C714.252 76.8613 714.086 77.3253 714.086 77.912V82.632C714.086 82.7387 714.049 82.8293 713.974 82.904C713.9 82.968 713.809 83 713.702 83H712.982Z" fill="#E0E0E0"/>
<path d="M548.08 44C547.813 44 547.573 43.9067 547.36 43.72C547.173 43.5067 547.08 43.2667 547.08 43V24.28L541.72 28.4C541.507 28.5333 541.307 28.6 541.12 28.6C540.8 28.6 540.52 28.44 540.28 28.12L537.8 24.92C537.693 24.7333 537.64 24.5333 537.64 24.32C537.64 23.9467 537.787 23.6533 538.08 23.44L547.36 16.28C547.627 16.0933 547.933 16 548.28 16H553.56C553.853 16 554.093 16.0933 554.28 16.28C554.493 16.4667 554.6 16.7067 554.6 17V43C554.6 43.2933 554.493 43.5333 554.28 43.72C554.093 43.9067 553.853 44 553.56 44H548.08ZM570.796 44.4C567.116 44.3733 564.316 43.4 562.396 41.48C560.476 39.56 559.423 37.0267 559.236 33.88C559.183 32.44 559.156 31.1467 559.156 30C559.156 28.8267 559.183 27.4933 559.236 26C559.343 24 559.836 22.2267 560.716 20.68C561.623 19.1067 562.916 17.8667 564.596 16.96C566.303 16.0533 568.37 15.6 570.796 15.6C573.223 15.6 575.29 16.0533 576.996 16.96C578.703 17.8667 579.996 19.1067 580.876 20.68C581.783 22.2267 582.29 24 582.396 26C582.45 26.7467 582.476 28.08 582.476 30C582.476 31.8667 582.45 33.16 582.396 33.88C582.21 37.0267 581.156 39.56 579.236 41.48C577.316 43.4 574.503 44.3733 570.796 44.4ZM570.796 38.36C572.05 38.36 572.983 37.96 573.596 37.16C574.21 36.3333 574.543 35.1733 574.596 33.68C574.65 32.9067 574.676 31.6533 574.676 29.92C574.676 28.1867 574.65 26.96 574.596 26.24C574.543 24.8 574.21 23.6667 573.596 22.84C572.983 21.9867 572.05 21.56 570.796 21.56C568.396 21.56 567.13 23.12 566.996 26.24C566.97 26.96 566.956 28.1867 566.956 29.92C566.956 31.6533 566.97 32.9067 566.996 33.68C567.13 36.8 568.396 38.36 570.796 38.36ZM588.26 44C587.967 44 587.713 43.9067 587.5 43.72C587.313 43.5333 587.22 43.2933 587.22 43V17.04C587.22 16.7467 587.313 16.5067 587.5 16.32C587.713 16.1067 587.967 16 588.26 16H592.78C593.447 16 593.927 16.2933 594.22 16.88L601.1 29.2L608.02 16.88C608.313 16.2933 608.793 16 609.46 16H613.98C614.273 16 614.513 16.1067 614.7 16.32C614.913 16.5067 615.02 16.7467 615.02 17.04V43C615.02 43.2933 614.913 43.5333 614.7 43.72C614.513 43.9067 614.273 44 613.98 44H608.9C608.633 44 608.393 43.9067 608.18 43.72C607.993 43.5067 607.9 43.2667 607.9 43V28.44L603.58 36.36C603.233 36.9733 602.767 37.28 602.18 37.28H600.02C599.487 37.28 599.02 36.9733 598.62 36.36L594.34 28.44V43C594.34 43.2933 594.233 43.5333 594.02 43.72C593.833 43.9067 593.593 44 593.3 44H588.26ZM628.142 42.68C627.876 42.68 627.636 42.5867 627.422 42.4C627.236 42.1867 627.142 41.9467 627.142 41.68V34.44H620.102C619.836 34.44 619.596 34.3467 619.382 34.16C619.196 33.9467 619.102 33.7067 619.102 33.44V30.36C619.102 30.0667 619.196 29.8267 619.382 29.64C619.569 29.4267 619.809 29.32 620.102 29.32H627.142V22.32C627.142 22.0267 627.236 21.7867 627.422 21.6C627.636 21.4133 627.876 21.32 628.142 21.32H631.582C631.876 21.32 632.116 21.4133 632.302 21.6C632.516 21.7867 632.622 22.0267 632.622 22.32V29.32H639.582C639.876 29.32 640.116 29.4267 640.302 29.64C640.516 29.8267 640.622 30.0667 640.622 30.36V33.44C640.622 33.7333 640.516 33.9733 640.302 34.16C640.116 34.3467 639.876 34.44 639.582 34.44H632.622V41.68C632.622 41.9733 632.516 42.2133 632.302 42.4C632.116 42.5867 631.876 42.68 631.582 42.68H628.142Z" fill="white"/>
<circle opacity="0.1" cx="473" cy="40" r="40" fill="white"/>
<path d="M478.988 25.0453C477.467 23.4039 475.344 22.5 473 22.5C470.644 22.5 468.513 23.3984 467 25.0297C465.47 26.6789 464.725 28.9203 464.9 31.3406C465.247 36.1156 468.88 40 473 40C477.12 40 480.747 36.1164 481.099 31.3422C481.277 28.9437 480.527 26.707 478.988 25.0453Z" fill="#3671E9"/>
<path d="M486.75 57.5H459.25C458.89 57.5047 458.533 57.4291 458.206 57.2786C457.879 57.1282 457.59 56.9068 457.359 56.6305C456.851 56.0234 456.647 55.1945 456.798 54.3562C457.458 50.6984 459.516 47.6258 462.75 45.4687C465.623 43.5539 469.263 42.5 473 42.5C476.737 42.5 480.376 43.5547 483.25 45.4687C486.484 47.625 488.542 50.6977 489.201 54.3555C489.353 55.1937 489.148 56.0227 488.641 56.6297C488.41 56.9062 488.121 57.1277 487.793 57.2783C487.466 57.4288 487.11 57.5046 486.75 57.5Z" fill="#3671E9"/>
<path d="M105.76 83C105.653 83 105.568 82.968 105.504 82.904C105.44 82.8293 105.408 82.7387 105.408 82.632V72.184C105.408 72.0667 105.44 71.976 105.504 71.912C105.568 71.8373 105.653 71.8 105.76 71.8H109.376C110.987 71.8 112.149 72.1627 112.864 72.888C113.579 73.6027 113.947 74.6853 113.968 76.136C113.979 76.4453 113.984 76.8613 113.984 77.384C113.984 77.9067 113.979 78.328 113.968 78.648C113.947 79.6613 113.781 80.488 113.472 81.128C113.173 81.7573 112.699 82.2267 112.048 82.536C111.397 82.8453 110.533 83 109.456 83H105.76ZM109.376 81.672C110.123 81.672 110.715 81.5707 111.152 81.368C111.6 81.1547 111.92 80.8293 112.112 80.392C112.315 79.944 112.427 79.3413 112.448 78.584C112.469 77.944 112.48 77.544 112.48 77.384C112.48 77.2133 112.469 76.8187 112.448 76.2C112.427 75.1333 112.171 74.3547 111.68 73.864C111.2 73.3627 110.405 73.112 109.296 73.112H106.912V81.672H109.376ZM116.616 73.112C116.509 73.112 116.418 73.08 116.344 73.016C116.28 72.9413 116.248 72.8507 116.248 72.744V71.912C116.248 71.8053 116.28 71.7147 116.344 71.64C116.418 71.5653 116.509 71.528 116.616 71.528H117.56C117.666 71.528 117.757 71.5653 117.832 71.64C117.906 71.7147 117.944 71.8053 117.944 71.912V72.744C117.944 72.8507 117.906 72.9413 117.832 73.016C117.757 73.08 117.666 73.112 117.56 73.112H116.616ZM116.744 83C116.637 83 116.546 82.968 116.472 82.904C116.408 82.8293 116.376 82.7387 116.376 82.632V75.048C116.376 74.9413 116.408 74.856 116.472 74.792C116.546 74.7173 116.637 74.68 116.744 74.68H117.448C117.554 74.68 117.64 74.7173 117.704 74.792C117.778 74.856 117.816 74.9413 117.816 75.048V82.632C117.816 82.7387 117.778 82.8293 117.704 82.904C117.64 82.968 117.554 83 117.448 83H116.744ZM123.755 86.52C122.87 86.52 122.161 86.3707 121.627 86.072C121.094 85.7733 120.715 85.432 120.491 85.048C120.278 84.664 120.171 84.3333 120.171 84.056C120.171 83.96 120.209 83.8747 120.283 83.8C120.358 83.736 120.443 83.704 120.539 83.704H121.243C121.339 83.704 121.419 83.7253 121.483 83.768C121.547 83.8213 121.601 83.912 121.643 84.04C121.942 84.8933 122.619 85.32 123.675 85.32C124.475 85.32 125.067 85.1493 125.451 84.808C125.835 84.4667 126.027 83.864 126.027 83V81.896C125.409 82.6853 124.545 83.08 123.435 83.08C122.305 83.08 121.457 82.7173 120.891 81.992C120.337 81.2667 120.043 80.3493 120.011 79.24L119.995 78.792L120.011 78.36C120.043 77.2613 120.337 76.3493 120.891 75.624C121.457 74.888 122.305 74.52 123.435 74.52C124.555 74.52 125.43 74.9307 126.059 75.752V75.064C126.059 74.9573 126.091 74.8667 126.155 74.792C126.23 74.7173 126.321 74.68 126.427 74.68H127.115C127.222 74.68 127.307 74.7173 127.371 74.792C127.446 74.8667 127.483 74.9573 127.483 75.064V82.824C127.483 85.288 126.241 86.52 123.755 86.52ZM123.723 81.832C124.47 81.832 125.03 81.592 125.403 81.112C125.787 80.6213 125.995 80.0347 126.027 79.352C126.038 79.256 126.043 79.0693 126.043 78.792C126.043 78.5253 126.038 78.344 126.027 78.248C125.995 77.5653 125.787 76.984 125.403 76.504C125.03 76.0133 124.47 75.768 123.723 75.768C122.955 75.768 122.395 76.0133 122.043 76.504C121.702 76.984 121.515 77.608 121.483 78.376L121.467 78.792L121.483 79.224C121.515 79.992 121.702 80.6213 122.043 81.112C122.395 81.592 122.955 81.832 123.723 81.832ZM130.295 73.112C130.188 73.112 130.098 73.08 130.023 73.016C129.959 72.9413 129.927 72.8507 129.927 72.744V71.912C129.927 71.8053 129.959 71.7147 130.023 71.64C130.098 71.5653 130.188 71.528 130.295 71.528H131.239C131.346 71.528 131.436 71.5653 131.511 71.64C131.586 71.7147 131.623 71.8053 131.623 71.912V72.744C131.623 72.8507 131.586 72.9413 131.511 73.016C131.436 73.08 131.346 73.112 131.239 73.112H130.295ZM130.423 83C130.316 83 130.226 82.968 130.151 82.904C130.087 82.8293 130.055 82.7387 130.055 82.632V75.048C130.055 74.9413 130.087 74.856 130.151 74.792C130.226 74.7173 130.316 74.68 130.423 74.68H131.127C131.234 74.68 131.319 74.7173 131.383 74.792C131.458 74.856 131.495 74.9413 131.495 75.048V82.632C131.495 82.7387 131.458 82.8293 131.383 82.904C131.319 82.968 131.234 83 131.127 83H130.423ZM137.259 83C135.605 83 134.779 82.0667 134.779 80.2V75.912H133.515C133.408 75.912 133.323 75.88 133.259 75.816C133.195 75.752 133.163 75.6667 133.163 75.56V75.048C133.163 74.9413 133.195 74.856 133.259 74.792C133.323 74.7173 133.408 74.68 133.515 74.68H134.779V72.008C134.779 71.9013 134.811 71.816 134.875 71.752C134.939 71.6773 135.024 71.64 135.131 71.64H135.835C135.941 71.64 136.027 71.6773 136.091 71.752C136.165 71.816 136.203 71.9013 136.203 72.008V74.68H138.187C138.293 74.68 138.379 74.7173 138.443 74.792C138.517 74.856 138.555 74.9413 138.555 75.048V75.56C138.555 75.6667 138.517 75.752 138.443 75.816C138.379 75.88 138.293 75.912 138.187 75.912H136.203V80.088C136.203 80.632 136.288 81.0427 136.459 81.32C136.64 81.5973 136.944 81.736 137.371 81.736H138.347C138.453 81.736 138.539 81.7733 138.603 81.848C138.667 81.912 138.699 81.9973 138.699 82.104V82.632C138.699 82.7387 138.667 82.8293 138.603 82.904C138.539 82.968 138.453 83 138.347 83H137.259ZM142.726 83.16C142.203 83.16 141.718 83.0533 141.27 82.84C140.833 82.6267 140.481 82.3387 140.214 81.976C139.958 81.6027 139.83 81.192 139.83 80.744C139.83 80.04 140.118 79.464 140.694 79.016C141.27 78.568 142.054 78.2693 143.046 78.12L145.446 77.784V77.32C145.446 76.2213 144.811 75.672 143.542 75.672C143.051 75.672 142.657 75.7733 142.358 75.976C142.059 76.168 141.841 76.3973 141.702 76.664C141.659 76.7707 141.611 76.8453 141.558 76.888C141.515 76.92 141.451 76.936 141.366 76.936H140.742C140.646 76.936 140.561 76.904 140.486 76.84C140.422 76.7653 140.39 76.68 140.39 76.584C140.39 76.3387 140.502 76.056 140.726 75.736C140.961 75.4053 141.318 75.1227 141.798 74.888C142.278 74.6427 142.865 74.52 143.558 74.52C144.753 74.52 145.606 74.7973 146.118 75.352C146.641 75.9067 146.902 76.6 146.902 77.432V82.632C146.902 82.7387 146.865 82.8293 146.79 82.904C146.726 82.968 146.641 83 146.534 83H145.83C145.723 83 145.638 82.968 145.574 82.904C145.51 82.8293 145.478 82.7387 145.478 82.632V81.928C145.243 82.28 144.902 82.5733 144.454 82.808C144.006 83.0427 143.43 83.16 142.726 83.16ZM143.046 81.992C143.75 81.992 144.326 81.7627 144.774 81.304C145.222 80.8453 145.446 80.1787 145.446 79.304V78.856L143.574 79.128C142.806 79.2347 142.225 79.416 141.83 79.672C141.435 79.928 141.238 80.248 141.238 80.632C141.238 81.0693 141.414 81.4053 141.766 81.64C142.129 81.8747 142.555 81.992 143.046 81.992ZM149.763 83C149.656 83 149.565 82.968 149.491 82.904C149.427 82.8293 149.395 82.7387 149.395 82.632V72.008C149.395 71.8907 149.427 71.8 149.491 71.736C149.565 71.672 149.656 71.64 149.763 71.64H150.467C150.573 71.64 150.659 71.6773 150.723 71.752C150.797 71.816 150.835 71.9013 150.835 72.008V82.632C150.835 82.7387 150.797 82.8293 150.723 82.904C150.659 82.968 150.573 83 150.467 83H149.763ZM161.704 83.16C160.285 83.16 159.202 82.776 158.456 82.008C157.72 81.2293 157.325 80.168 157.272 78.824C157.261 78.536 157.256 78.0667 157.256 77.416C157.256 76.7547 157.261 76.2747 157.272 75.976C157.325 74.632 157.72 73.576 158.456 72.808C159.202 72.0293 160.285 71.64 161.704 71.64C162.653 71.64 163.458 71.8107 164.12 72.152C164.781 72.4827 165.277 72.92 165.608 73.464C165.949 74.008 166.136 74.5893 166.168 75.208C166.168 75.304 166.13 75.384 166.056 75.448C165.992 75.5013 165.912 75.528 165.816 75.528H165.016C164.909 75.528 164.824 75.5013 164.76 75.448C164.696 75.3947 164.648 75.304 164.616 75.176C164.434 74.3547 164.104 73.7787 163.624 73.448C163.154 73.1173 162.514 72.952 161.704 72.952C159.848 72.952 158.882 73.9867 158.808 76.056C158.797 76.344 158.792 76.7867 158.792 77.384C158.792 77.9813 158.797 78.4347 158.808 78.744C158.882 80.8027 159.848 81.832 161.704 81.832C162.504 81.832 163.144 81.6667 163.624 81.336C164.104 81.0053 164.434 80.4347 164.616 79.624C164.648 79.496 164.696 79.4053 164.76 79.352C164.824 79.2987 164.909 79.272 165.016 79.272H165.816C165.912 79.272 165.992 79.304 166.056 79.368C166.13 79.4213 166.168 79.496 166.168 79.592C166.136 80.2107 165.949 80.792 165.608 81.336C165.277 81.88 164.781 82.3227 164.12 82.664C163.458 82.9947 162.653 83.16 161.704 83.16ZM171.4 83.16C170.387 83.16 169.603 82.8347 169.048 82.184C168.494 81.5227 168.216 80.648 168.216 79.56V75.048C168.216 74.9413 168.248 74.856 168.312 74.792C168.387 74.7173 168.478 74.68 168.584 74.68H169.32C169.427 74.68 169.512 74.7173 169.576 74.792C169.651 74.856 169.688 74.9413 169.688 75.048V79.48C169.688 81.1013 170.392 81.912 171.8 81.912C172.483 81.912 173.022 81.6987 173.416 81.272C173.822 80.8347 174.024 80.2373 174.024 79.48V75.048C174.024 74.9413 174.056 74.856 174.12 74.792C174.195 74.7173 174.286 74.68 174.392 74.68H175.128C175.235 74.68 175.32 74.7173 175.384 74.792C175.459 74.856 175.496 74.9413 175.496 75.048V82.632C175.496 82.7387 175.459 82.8293 175.384 82.904C175.32 82.968 175.235 83 175.128 83H174.44C174.334 83 174.243 82.968 174.168 82.904C174.104 82.8293 174.072 82.7387 174.072 82.632V81.912C173.763 82.328 173.4 82.6427 172.984 82.856C172.568 83.0587 172.04 83.16 171.4 83.16ZM178.418 83C178.311 83 178.221 82.968 178.146 82.904C178.082 82.8293 178.05 82.7387 178.05 82.632V75.064C178.05 74.9573 178.082 74.8667 178.146 74.792C178.221 74.7173 178.311 74.68 178.418 74.68H179.09C179.207 74.68 179.298 74.7173 179.362 74.792C179.437 74.856 179.474 74.9467 179.474 75.064V75.768C179.911 75.0427 180.653 74.68 181.698 74.68H182.322C182.439 74.68 182.53 74.712 182.594 74.776C182.658 74.84 182.69 74.9307 182.69 75.048V75.64C182.69 75.7467 182.658 75.8373 182.594 75.912C182.53 75.976 182.439 76.008 182.322 76.008H181.41C180.823 76.008 180.359 76.1787 180.018 76.52C179.687 76.8613 179.522 77.3253 179.522 77.912V82.632C179.522 82.7387 179.485 82.8293 179.41 82.904C179.335 82.968 179.245 83 179.138 83H178.418ZM184.594 83C184.487 83 184.396 82.968 184.322 82.904C184.258 82.8293 184.226 82.7387 184.226 82.632V75.064C184.226 74.9573 184.258 74.8667 184.322 74.792C184.396 74.7173 184.487 74.68 184.594 74.68H185.266C185.383 74.68 185.474 74.7173 185.538 74.792C185.612 74.856 185.65 74.9467 185.65 75.064V75.768C186.087 75.0427 186.828 74.68 187.874 74.68H188.498C188.615 74.68 188.706 74.712 188.77 74.776C188.834 74.84 188.866 74.9307 188.866 75.048V75.64C188.866 75.7467 188.834 75.8373 188.77 75.912C188.706 75.976 188.615 76.008 188.498 76.008H187.586C186.999 76.008 186.535 76.1787 186.194 76.52C185.863 76.8613 185.698 77.3253 185.698 77.912V82.632C185.698 82.7387 185.66 82.8293 185.586 82.904C185.511 82.968 185.42 83 185.314 83H184.594ZM193.541 83.16C192.453 83.16 191.584 82.824 190.933 82.152C190.282 81.4693 189.925 80.5413 189.861 79.368L189.845 78.824L189.861 78.296C189.925 77.144 190.282 76.2267 190.933 75.544C191.584 74.8613 192.453 74.52 193.541 74.52C194.714 74.52 195.621 74.8933 196.261 75.64C196.912 76.3867 197.237 77.4 197.237 78.68V78.968C197.237 79.0747 197.2 79.1653 197.125 79.24C197.061 79.304 196.976 79.336 196.869 79.336H191.317V79.48C191.349 80.1733 191.562 80.7653 191.957 81.256C192.352 81.7467 192.874 81.992 193.525 81.992C194.026 81.992 194.432 81.896 194.741 81.704C195.061 81.5013 195.301 81.2933 195.461 81.08C195.557 80.952 195.632 80.8773 195.685 80.856C195.738 80.824 195.829 80.808 195.957 80.808H196.661C196.757 80.808 196.837 80.8347 196.901 80.888C196.976 80.9413 197.013 81.0107 197.013 81.096C197.013 81.3307 196.869 81.6133 196.581 81.944C196.293 82.2747 195.882 82.5627 195.349 82.808C194.826 83.0427 194.224 83.16 193.541 83.16ZM195.781 78.248V78.2C195.781 77.4533 195.578 76.8453 195.173 76.376C194.768 75.9067 194.224 75.672 193.541 75.672C192.848 75.672 192.304 75.9067 191.909 76.376C191.514 76.8453 191.317 77.4533 191.317 78.2V78.248H195.781ZM199.711 83C199.604 83 199.513 82.968 199.439 82.904C199.375 82.8293 199.343 82.7387 199.343 82.632V75.048C199.343 74.9413 199.375 74.856 199.439 74.792C199.513 74.7173 199.604 74.68 199.711 74.68H200.399C200.516 74.68 200.607 74.712 200.671 74.776C200.735 74.84 200.767 74.9307 200.767 75.048V75.752C201.087 75.3573 201.455 75.0533 201.871 74.84C202.297 74.6267 202.825 74.52 203.455 74.52C204.479 74.52 205.273 74.8507 205.839 75.512C206.404 76.1627 206.687 77.0267 206.687 78.104V82.632C206.687 82.7387 206.649 82.8293 206.575 82.904C206.511 82.968 206.425 83 206.319 83H205.583C205.476 83 205.385 82.968 205.311 82.904C205.247 82.8293 205.215 82.7387 205.215 82.632V78.2C205.215 77.432 205.028 76.8347 204.655 76.408C204.281 75.9813 203.748 75.768 203.055 75.768C202.372 75.768 201.828 75.9867 201.423 76.424C201.017 76.8507 200.815 77.4427 200.815 78.2V82.632C200.815 82.7387 200.777 82.8293 200.703 82.904C200.639 82.968 200.553 83 200.447 83H199.711ZM212.487 83.16C211.345 83.16 210.455 82.84 209.815 82.2C209.175 81.5493 208.839 80.6427 208.807 79.48L208.791 78.84L208.807 78.2C208.839 77.0373 209.175 76.136 209.815 75.496C210.455 74.8453 211.345 74.52 212.487 74.52C213.255 74.52 213.9 74.6587 214.423 74.936C214.956 75.2027 215.351 75.5387 215.607 75.944C215.873 76.3493 216.017 76.7547 216.039 77.16C216.049 77.256 216.012 77.3413 215.927 77.416C215.852 77.4907 215.767 77.528 215.671 77.528H214.967C214.86 77.528 214.78 77.5067 214.727 77.464C214.673 77.4107 214.62 77.32 214.567 77.192C214.375 76.6693 214.108 76.3013 213.767 76.088C213.436 75.864 213.015 75.752 212.503 75.752C211.831 75.752 211.297 75.96 210.903 76.376C210.508 76.792 210.295 77.4267 210.263 78.28L210.247 78.84L210.263 79.4C210.295 80.2533 210.508 80.888 210.903 81.304C211.297 81.72 211.831 81.928 212.503 81.928C213.025 81.928 213.452 81.8213 213.783 81.608C214.113 81.384 214.375 81.0107 214.567 80.488C214.62 80.36 214.673 80.2747 214.727 80.232C214.78 80.1787 214.86 80.152 214.967 80.152H215.671C215.767 80.152 215.852 80.1893 215.927 80.264C216.012 80.3387 216.049 80.424 216.039 80.52C216.017 80.9147 215.873 81.3147 215.607 81.72C215.351 82.1253 214.956 82.4667 214.423 82.744C213.9 83.0213 213.255 83.16 212.487 83.16ZM219.337 86.04C219.241 86.04 219.161 86.008 219.097 85.944C219.033 85.88 219.001 85.8053 219.001 85.72C219.001 85.688 219.028 85.592 219.081 85.432L220.329 82.504L217.273 75.288C217.209 75.16 217.177 75.0693 217.177 75.016C217.188 74.92 217.225 74.84 217.289 74.776C217.353 74.712 217.428 74.68 217.513 74.68H218.249C218.42 74.68 218.548 74.7653 218.633 74.936L221.097 80.824L223.625 74.936C223.711 74.7653 223.839 74.68 224.009 74.68H224.729C224.815 74.68 224.889 74.712 224.953 74.776C225.017 74.84 225.049 74.9147 225.049 75C225.049 75.0747 225.023 75.1707 224.969 75.288L220.441 85.784C220.388 85.8693 220.329 85.9333 220.265 85.976C220.212 86.0187 220.137 86.04 220.041 86.04H219.337ZM231.043 83C230.936 83 230.851 82.968 230.787 82.904C230.723 82.8293 230.691 82.7387 230.691 82.632V72.184C230.691 72.0667 230.723 71.976 230.787 71.912C230.851 71.8373 230.936 71.8 231.043 71.8H237.619C237.736 71.8 237.827 71.8373 237.891 71.912C237.965 71.976 238.003 72.0667 238.003 72.184V72.76C238.003 72.8667 237.965 72.952 237.891 73.016C237.827 73.08 237.736 73.112 237.619 73.112H232.163V76.68H237.267C237.384 76.68 237.475 76.7173 237.539 76.792C237.613 76.856 237.651 76.9467 237.651 77.064V77.608C237.651 77.7147 237.613 77.8053 237.539 77.88C237.475 77.944 237.384 77.976 237.267 77.976H232.163V81.672H237.747C237.864 81.672 237.955 81.7093 238.019 81.784C238.093 81.848 238.131 81.9387 238.131 82.056V82.632C238.131 82.7387 238.093 82.8293 238.019 82.904C237.944 82.968 237.853 83 237.747 83H231.043ZM239.946 83C239.85 83 239.77 82.968 239.706 82.904C239.642 82.84 239.61 82.76 239.61 82.664C239.61 82.568 239.647 82.4667 239.722 82.36L242.506 78.744L239.898 75.304C239.813 75.1867 239.77 75.0907 239.77 75.016C239.77 74.92 239.802 74.84 239.866 74.776C239.941 74.712 240.021 74.68 240.106 74.68H240.874C241.034 74.68 241.173 74.7653 241.29 74.936L243.45 77.736L245.61 74.936C245.674 74.8507 245.733 74.7867 245.786 74.744C245.85 74.7013 245.93 74.68 246.026 74.68H246.762C246.847 74.68 246.922 74.712 246.986 74.776C247.05 74.84 247.082 74.9147 247.082 75C247.082 75.1067 247.045 75.208 246.97 75.304L244.33 78.776L247.114 82.36C247.189 82.4667 247.226 82.568 247.226 82.664C247.226 82.76 247.194 82.84 247.13 82.904C247.066 82.968 246.986 83 246.89 83H246.106C245.946 83 245.807 82.92 245.69 82.76L243.402 79.8L241.114 82.76C241.05 82.8347 240.986 82.8933 240.922 82.936C240.869 82.9787 240.794 83 240.698 83H239.946ZM252.193 83.16C251.052 83.16 250.161 82.84 249.521 82.2C248.881 81.5493 248.545 80.6427 248.513 79.48L248.497 78.84L248.513 78.2C248.545 77.0373 248.881 76.136 249.521 75.496C250.161 74.8453 251.052 74.52 252.193 74.52C252.961 74.52 253.606 74.6587 254.129 74.936C254.662 75.2027 255.057 75.5387 255.313 75.944C255.58 76.3493 255.724 76.7547 255.745 77.16C255.756 77.256 255.718 77.3413 255.633 77.416C255.558 77.4907 255.473 77.528 255.377 77.528H254.673C254.566 77.528 254.486 77.5067 254.433 77.464C254.38 77.4107 254.326 77.32 254.273 77.192C254.081 76.6693 253.814 76.3013 253.473 76.088C253.142 75.864 252.721 75.752 252.209 75.752C251.537 75.752 251.004 75.96 250.609 76.376C250.214 76.792 250.001 77.4267 249.969 78.28L249.953 78.84L249.969 79.4C250.001 80.2533 250.214 80.888 250.609 81.304C251.004 81.72 251.537 81.928 252.209 81.928C252.732 81.928 253.158 81.8213 253.489 81.608C253.82 81.384 254.081 81.0107 254.273 80.488C254.326 80.36 254.38 80.2747 254.433 80.232C254.486 80.1787 254.566 80.152 254.673 80.152H255.377C255.473 80.152 255.558 80.1893 255.633 80.264C255.718 80.3387 255.756 80.424 255.745 80.52C255.724 80.9147 255.58 81.3147 255.313 81.72C255.057 82.1253 254.662 82.4667 254.129 82.744C253.606 83.0213 252.961 83.16 252.193 83.16ZM258.206 83C258.099 83 258.009 82.968 257.934 82.904C257.87 82.8293 257.838 82.7387 257.838 82.632V72.008C257.838 71.8907 257.87 71.8 257.934 71.736C258.009 71.672 258.099 71.64 258.206 71.64H258.942C259.059 71.64 259.15 71.672 259.214 71.736C259.278 71.8 259.31 71.8907 259.31 72.008V75.736C259.619 75.3413 259.982 75.0427 260.398 74.84C260.825 74.6267 261.347 74.52 261.966 74.52C262.99 74.52 263.785 74.8507 264.35 75.512C264.926 76.1627 265.214 77.0267 265.214 78.104V82.632C265.214 82.7387 265.177 82.8293 265.102 82.904C265.038 82.968 264.953 83 264.846 83H264.094C263.987 83 263.897 82.968 263.822 82.904C263.758 82.8293 263.726 82.7387 263.726 82.632V78.2C263.726 77.432 263.539 76.8347 263.166 76.408C262.793 75.9813 262.254 75.768 261.55 75.768C260.867 75.768 260.323 75.9867 259.918 76.424C259.513 76.8507 259.31 77.4427 259.31 78.2V82.632C259.31 82.7387 259.273 82.8293 259.198 82.904C259.134 82.968 259.049 83 258.942 83H258.206ZM270.005 83.16C269.482 83.16 268.997 83.0533 268.549 82.84C268.111 82.6267 267.759 82.3387 267.493 81.976C267.237 81.6027 267.109 81.192 267.109 80.744C267.109 80.04 267.397 79.464 267.973 79.016C268.549 78.568 269.333 78.2693 270.325 78.12L272.725 77.784V77.32C272.725 76.2213 272.09 75.672 270.821 75.672C270.33 75.672 269.935 75.7733 269.637 75.976C269.338 76.168 269.119 76.3973 268.981 76.664C268.938 76.7707 268.89 76.8453 268.837 76.888C268.794 76.92 268.73 76.936 268.645 76.936H268.021C267.925 76.936 267.839 76.904 267.765 76.84C267.701 76.7653 267.669 76.68 267.669 76.584C267.669 76.3387 267.781 76.056 268.005 75.736C268.239 75.4053 268.597 75.1227 269.077 74.888C269.557 74.6427 270.143 74.52 270.837 74.52C272.031 74.52 272.885 74.7973 273.397 75.352C273.919 75.9067 274.181 76.6 274.181 77.432V82.632C274.181 82.7387 274.143 82.8293 274.069 82.904C274.005 82.968 273.919 83 273.813 83H273.109C273.002 83 272.917 82.968 272.853 82.904C272.789 82.8293 272.757 82.7387 272.757 82.632V81.928C272.522 82.28 272.181 82.5733 271.733 82.808C271.285 83.0427 270.709 83.16 270.005 83.16ZM270.325 81.992C271.029 81.992 271.605 81.7627 272.053 81.304C272.501 80.8453 272.725 80.1787 272.725 79.304V78.856L270.853 79.128C270.085 79.2347 269.503 79.416 269.109 79.672C268.714 79.928 268.517 80.248 268.517 80.632C268.517 81.0693 268.693 81.4053 269.045 81.64C269.407 81.8747 269.834 81.992 270.325 81.992ZM277.026 83C276.919 83 276.828 82.968 276.754 82.904C276.69 82.8293 276.658 82.7387 276.658 82.632V75.048C276.658 74.9413 276.69 74.856 276.754 74.792C276.828 74.7173 276.919 74.68 277.026 74.68H277.714C277.831 74.68 277.922 74.712 277.986 74.776C278.05 74.84 278.082 74.9307 278.082 75.048V75.752C278.402 75.3573 278.77 75.0533 279.186 74.84C279.612 74.6267 280.14 74.52 280.77 74.52C281.794 74.52 282.588 74.8507 283.154 75.512C283.719 76.1627 284.002 77.0267 284.002 78.104V82.632C284.002 82.7387 283.964 82.8293 283.89 82.904C283.826 82.968 283.74 83 283.634 83H282.898C282.791 83 282.7 82.968 282.626 82.904C282.562 82.8293 282.53 82.7387 282.53 82.632V78.2C282.53 77.432 282.343 76.8347 281.97 76.408C281.596 75.9813 281.063 75.768 280.37 75.768C279.687 75.768 279.143 75.9867 278.738 76.424C278.332 76.8507 278.13 77.4427 278.13 78.2V82.632C278.13 82.7387 278.092 82.8293 278.018 82.904C277.954 82.968 277.868 83 277.762 83H277.026ZM289.85 86.52C288.964 86.52 288.255 86.3707 287.722 86.072C287.188 85.7733 286.81 85.432 286.586 85.048C286.372 84.664 286.266 84.3333 286.266 84.056C286.266 83.96 286.303 83.8747 286.378 83.8C286.452 83.736 286.538 83.704 286.634 83.704H287.338C287.434 83.704 287.514 83.7253 287.578 83.768C287.642 83.8213 287.695 83.912 287.738 84.04C288.036 84.8933 288.714 85.32 289.77 85.32C290.57 85.32 291.162 85.1493 291.546 84.808C291.93 84.4667 292.122 83.864 292.122 83V81.896C291.503 82.6853 290.639 83.08 289.53 83.08C288.399 83.08 287.551 82.7173 286.986 81.992C286.431 81.2667 286.138 80.3493 286.106 79.24L286.09 78.792L286.106 78.36C286.138 77.2613 286.431 76.3493 286.986 75.624C287.551 74.888 288.399 74.52 289.53 74.52C290.65 74.52 291.524 74.9307 292.154 75.752V75.064C292.154 74.9573 292.186 74.8667 292.25 74.792C292.324 74.7173 292.415 74.68 292.522 74.68H293.21C293.316 74.68 293.402 74.7173 293.466 74.792C293.54 74.8667 293.578 74.9573 293.578 75.064V82.824C293.578 85.288 292.335 86.52 289.85 86.52ZM289.818 81.832C290.564 81.832 291.124 81.592 291.498 81.112C291.882 80.6213 292.09 80.0347 292.122 79.352C292.132 79.256 292.138 79.0693 292.138 78.792C292.138 78.5253 292.132 78.344 292.122 78.248C292.09 77.5653 291.882 76.984 291.498 76.504C291.124 76.0133 290.564 75.768 289.818 75.768C289.05 75.768 288.49 76.0133 288.138 76.504C287.796 76.984 287.61 77.608 287.578 78.376L287.562 78.792L287.578 79.224C287.61 79.992 287.796 80.6213 288.138 81.112C288.49 81.592 289.05 81.832 289.818 81.832ZM299.445 83.16C298.357 83.16 297.488 82.824 296.837 82.152C296.187 81.4693 295.829 80.5413 295.765 79.368L295.749 78.824L295.765 78.296C295.829 77.144 296.187 76.2267 296.837 75.544C297.488 74.8613 298.357 74.52 299.445 74.52C300.619 74.52 301.525 74.8933 302.165 75.64C302.816 76.3867 303.141 77.4 303.141 78.68V78.968C303.141 79.0747 303.104 79.1653 303.029 79.24C302.965 79.304 302.88 79.336 302.773 79.336H297.221V79.48C297.253 80.1733 297.467 80.7653 297.861 81.256C298.256 81.7467 298.779 81.992 299.429 81.992C299.931 81.992 300.336 81.896 300.645 81.704C300.965 81.5013 301.205 81.2933 301.365 81.08C301.461 80.952 301.536 80.8773 301.589 80.856C301.643 80.824 301.733 80.808 301.861 80.808H302.565C302.661 80.808 302.741 80.8347 302.805 80.888C302.88 80.9413 302.917 81.0107 302.917 81.096C302.917 81.3307 302.773 81.6133 302.485 81.944C302.197 82.2747 301.787 82.5627 301.253 82.808C300.731 83.0427 300.128 83.16 299.445 83.16ZM301.685 78.248V78.2C301.685 77.4533 301.483 76.8453 301.077 76.376C300.672 75.9067 300.128 75.672 299.445 75.672C298.752 75.672 298.208 75.9067 297.813 76.376C297.419 76.8453 297.221 77.4533 297.221 78.2V78.248H301.685ZM308.287 83.16C307.167 83.16 306.324 82.7973 305.759 82.072C305.204 81.3467 304.906 80.4293 304.863 79.32L304.847 78.84L304.863 78.36C304.906 77.2613 305.21 76.3493 305.775 75.624C306.34 74.888 307.178 74.52 308.287 74.52C309.396 74.52 310.26 74.9147 310.879 75.704V72.008C310.879 71.9013 310.911 71.816 310.975 71.752C311.05 71.6773 311.14 71.64 311.247 71.64H311.967C312.074 71.64 312.159 71.6773 312.223 71.752C312.298 71.816 312.335 71.9013 312.335 72.008V82.632C312.335 82.7387 312.298 82.8293 312.223 82.904C312.159 82.968 312.074 83 311.967 83H311.279C311.172 83 311.087 82.968 311.023 82.904C310.959 82.8293 310.927 82.7387 310.927 82.632V81.944C310.319 82.7547 309.439 83.16 308.287 83.16ZM308.591 81.912C309.338 81.912 309.898 81.6667 310.271 81.176C310.644 80.6747 310.847 80.0827 310.879 79.4C310.89 79.2827 310.895 79.08 310.895 78.792C310.895 78.4933 310.89 78.2853 310.879 78.168C310.858 77.5173 310.65 76.9573 310.255 76.488C309.871 76.008 309.316 75.768 308.591 75.768C307.823 75.768 307.263 76.008 306.911 76.488C306.559 76.968 306.367 77.5973 306.335 78.376L306.319 78.84C306.319 80.888 307.076 81.912 308.591 81.912Z" fill="#E0E0E0"/>
<path d="M115.64 48C115.373 48 115.133 47.9067 114.92 47.72C114.733 47.5333 114.64 47.2933 114.64 47V44.2C112.64 43.96 110.933 43.4667 109.52 42.72C108.133 41.9467 107.08 41 106.36 39.88C105.667 38.76 105.293 37.5733 105.24 36.32C105.24 36.08 105.32 35.88 105.48 35.72C105.667 35.56 105.88 35.48 106.12 35.48H111.44C111.787 35.48 112.053 35.5333 112.24 35.64C112.427 35.7467 112.64 35.9333 112.88 36.2C113.707 37.6667 115.227 38.4 117.44 38.4C118.88 38.4 119.987 38.1867 120.76 37.76C121.56 37.3067 121.96 36.6933 121.96 35.92C121.96 35.36 121.747 34.9067 121.32 34.56C120.92 34.1867 120.28 33.8667 119.4 33.6C118.547 33.3067 117.28 32.9867 115.6 32.64C112.373 32 109.96 31.0267 108.36 29.72C106.76 28.4133 105.96 26.5467 105.96 24.12C105.96 21.96 106.733 20.1333 108.28 18.64C109.827 17.12 111.947 16.1733 114.64 15.8V13C114.64 12.7067 114.733 12.4667 114.92 12.28C115.133 12.0933 115.373 12 115.64 12H119.12C119.413 12 119.653 12.0933 119.84 12.28C120.027 12.4667 120.12 12.7067 120.12 13V15.88C121.88 16.2 123.4 16.7733 124.68 17.6C125.96 18.4 126.933 19.3333 127.6 20.4C128.293 21.44 128.667 22.4533 128.72 23.44C128.72 23.68 128.64 23.8933 128.48 24.08C128.32 24.24 128.12 24.32 127.88 24.32H122.28C121.667 24.32 121.213 24.08 120.92 23.6C120.76 23.04 120.333 22.5733 119.64 22.2C118.973 21.8 118.16 21.6 117.2 21.6C116.08 21.6 115.213 21.8 114.6 22.2C113.987 22.6 113.68 23.1867 113.68 23.96C113.68 24.7333 114.08 25.3467 114.88 25.8C115.68 26.2267 117.16 26.6667 119.32 27.12C121.827 27.5733 123.827 28.1467 125.32 28.84C126.813 29.5067 127.907 30.3867 128.6 31.48C129.293 32.5467 129.64 33.9067 129.64 35.56C129.64 37.9067 128.773 39.84 127.04 41.36C125.333 42.88 123.027 43.8267 120.12 44.2V47C120.12 47.2933 120.027 47.5333 119.84 47.72C119.653 47.9067 119.413 48 119.12 48H115.64ZM143.994 44.4C141.381 44.4 139.181 44 137.394 43.2C135.634 42.3733 134.327 41.36 133.474 40.16C132.647 38.96 132.207 37.76 132.154 36.56C132.154 36.32 132.234 36.12 132.394 35.96C132.581 35.8 132.794 35.72 133.034 35.72H138.554C138.874 35.72 139.127 35.7867 139.314 35.92C139.501 36.0267 139.674 36.2133 139.834 36.48C140.341 37.7867 141.741 38.44 144.034 38.44C145.341 38.44 146.354 38.1333 147.074 37.52C147.794 36.9067 148.154 36.08 148.154 35.04C148.154 33.04 146.821 32.04 144.154 32.04H139.674C139.381 32.04 139.127 31.9467 138.914 31.76C138.727 31.5467 138.634 31.2933 138.634 31V28.64C138.634 28.0267 138.861 27.5733 139.314 27.28L145.754 22H134.714C134.447 22 134.207 21.9067 133.994 21.72C133.807 21.5067 133.714 21.2667 133.714 21V17.04C133.714 16.7467 133.807 16.5067 133.994 16.32C134.181 16.1067 134.421 16 134.714 16H153.354C153.647 16 153.887 16.1067 154.074 16.32C154.261 16.5067 154.354 16.7467 154.354 17.04V20.6C154.354 21.16 154.141 21.6 153.714 21.92L147.794 27.32L148.074 27.4C150.474 27.7467 152.381 28.5733 153.794 29.88C155.207 31.1867 155.914 33.0667 155.914 35.52C155.914 37.3067 155.394 38.88 154.354 40.24C153.341 41.5733 151.927 42.6 150.114 43.32C148.327 44.04 146.287 44.4 143.994 44.4ZM171.156 44.4C167.476 44.3733 164.676 43.4 162.756 41.48C160.836 39.56 159.782 37.0267 159.596 33.88C159.542 32.44 159.516 31.1467 159.516 30C159.516 28.8267 159.542 27.4933 159.596 26C159.702 24 160.196 22.2267 161.076 20.68C161.982 19.1067 163.276 17.8667 164.956 16.96C166.662 16.0533 168.729 15.6 171.156 15.6C173.582 15.6 175.649 16.0533 177.356 16.96C179.062 17.8667 180.356 19.1067 181.236 20.68C182.142 22.2267 182.649 24 182.756 26C182.809 26.7467 182.836 28.08 182.836 30C182.836 31.8667 182.809 33.16 182.756 33.88C182.569 37.0267 181.516 39.56 179.596 41.48C177.676 43.4 174.862 44.3733 171.156 44.4ZM171.156 38.36C172.409 38.36 173.342 37.96 173.956 37.16C174.569 36.3333 174.902 35.1733 174.956 33.68C175.009 32.9067 175.036 31.6533 175.036 29.92C175.036 28.1867 175.009 26.96 174.956 26.24C174.902 24.8 174.569 23.6667 173.956 22.84C173.342 21.9867 172.409 21.56 171.156 21.56C168.756 21.56 167.489 23.12 167.356 26.24C167.329 26.96 167.316 28.1867 167.316 29.92C167.316 31.6533 167.329 32.9067 167.356 33.68C167.489 36.8 168.756 38.36 171.156 38.36ZM188.579 44C188.313 44 188.073 43.9067 187.859 43.72C187.673 43.5067 187.579 43.2667 187.579 43V17.04C187.579 16.7467 187.673 16.5067 187.859 16.32C188.046 16.1067 188.286 16 188.579 16H200.939C204.326 16 206.846 16.6933 208.499 18.08C210.153 19.4667 210.979 21.44 210.979 24C210.979 25.28 210.633 26.3867 209.939 27.32C209.273 28.2533 208.526 28.9333 207.699 29.36C208.793 29.84 209.713 30.64 210.459 31.76C211.206 32.8533 211.579 34.0933 211.579 35.48C211.579 38.1733 210.686 40.2667 208.899 41.76C207.139 43.2533 204.606 44 201.299 44H188.579ZM200.099 27.08C201.086 27.08 201.846 26.8133 202.379 26.28C202.913 25.7467 203.179 25.0533 203.179 24.2C203.179 23.3733 202.913 22.7067 202.379 22.2C201.873 21.6667 201.113 21.4 200.099 21.4H195.099V27.08H200.099ZM200.459 38.6C201.499 38.6 202.299 38.3067 202.859 37.72C203.446 37.1067 203.739 36.36 203.739 35.48C203.739 34.5733 203.446 33.8267 202.859 33.24C202.273 32.6267 201.473 32.32 200.459 32.32H195.099V38.6H200.459Z" fill="white"/>
<circle cx="40" cy="40" r="40" fill="white" fill-opacity="0.1"/>
<path d="M54 55H27C26.4696 55 25.9609 54.7893 25.5858 54.4142C25.2107 54.0391 25 53.5304 25 53V26C25 25.7348 25.1054 25.4804 25.2929 25.2929C25.4804 25.1054 25.7348 25 26 25C26.2652 25 26.5196 25.1054 26.7071 25.2929C26.8946 25.4804 27 25.7348 27 26V53H54C54.2652 53 54.5196 53.1054 54.7071 53.2929C54.8946 53.4804 55 53.7348 55 54C55 54.2652 54.8946 54.5196 54.7071 54.7071C54.5196 54.8946 54.2652 55 54 55Z" fill="#3671E9"/>
<path d="M33.75 51H31.25C30.6533 51 30.081 50.7629 29.659 50.341C29.2371 49.919 29 49.3467 29 48.75V39.25C29 38.6533 29.2371 38.081 29.659 37.659C30.081 37.2371 30.6533 37 31.25 37H33.75C34.3467 37 34.919 37.2371 35.341 37.659C35.7629 38.081 36 38.6533 36 39.25V48.75C36 49.3467 35.7629 49.919 35.341 50.341C34.919 50.7629 34.3467 51 33.75 51Z" fill="#3671E9"/>
<path d="M42.75 51H40.25C39.6533 51 39.081 50.7629 38.659 50.341C38.2371 49.919 38 49.3467 38 48.75V36.25C38 35.6533 38.2371 35.081 38.659 34.659C39.081 34.2371 39.6533 34 40.25 34H42.75C43.3467 34 43.919 34.2371 44.341 34.659C44.7629 35.081 45 35.6533 45 36.25V48.75C45 49.3467 44.7629 49.919 44.341 50.341C43.919 50.7629 43.3467 51 42.75 51Z" fill="#3671E9"/>
<path d="M51.7274 51H49.2274C48.6307 51 48.0584 50.7629 47.6364 50.341C47.2145 49.919 46.9774 49.3467 46.9774 48.75V32.25C46.9774 31.6533 47.2145 31.081 47.6364 30.659C48.0584 30.2371 48.6307 30 49.2274 30H51.7274C52.3242 30 52.8965 30.2371 53.3184 30.659C53.7404 31.081 53.9774 31.6533 53.9774 32.25V48.75C53.9774 49.3467 53.7404 49.919 53.3184 50.341C52.8965 50.7629 52.3242 51 51.7274 51Z" fill="#3671E9"/>
</svg>
